<?xml version="1.0" encoding="utf-8"?>
<!-- Generator: Adobe Illustrator 24.1.2, SVG Export Plug-In . SVG Version: 6.00 Build 0)  -->
<svg version="1.1" id="Layer_1" xmlns="http://www.w3.org/2000/svg" xmlns:xlink="http://www.w3.org/1999/xlink" x="0px" y="0px"
	 viewBox="0 0 200 100" style="enable-background:new 0 0 200 100;" xml:space="preserve">
<style type="text/css">
	.st0{fill:#FFFFFF;}
	.st1{fill:none;}
</style>
<path class="st0" d="M97.5,64.7c-0.6-0.4-0.8-1-0.8-1.7v-0.4c0-0.1,0-0.1,0.1-0.1h0.6c0.1,0,0.1,0,0.1,0.1V63c0,0.5,0.2,0.9,0.6,1.2
	c0.4,0.3,1,0.5,1.7,0.5c0.7,0,1.1-0.1,1.5-0.4c0.3-0.3,0.5-0.6,0.5-1.1c0-0.3-0.1-0.6-0.2-0.8c-0.2-0.2-0.4-0.4-0.7-0.6
	c-0.3-0.2-0.8-0.4-1.4-0.6c-0.6-0.3-1.1-0.5-1.5-0.7c-0.4-0.2-0.6-0.4-0.9-0.7c-0.2-0.3-0.3-0.7-0.3-1.1c0-0.7,0.2-1.3,0.7-1.7
	c0.5-0.4,1.2-0.6,2-0.6c0.9,0,1.7,0.2,2.2,0.7c0.5,0.4,0.8,1,0.8,1.8V59c0,0.1,0,0.1-0.1,0.1h-0.6c-0.1,0-0.1,0-0.1-0.1v-0.2
	c0-0.5-0.2-0.9-0.6-1.2c-0.4-0.3-0.9-0.5-1.6-0.5c-0.6,0-1.1,0.1-1.4,0.4c-0.3,0.2-0.5,0.6-0.5,1.1c0,0.3,0.1,0.6,0.2,0.8
	c0.2,0.2,0.4,0.4,0.7,0.5c0.3,0.1,0.7,0.3,1.4,0.6c0.6,0.3,1.1,0.5,1.5,0.7c0.4,0.2,0.7,0.5,0.9,0.8c0.2,0.3,0.4,0.7,0.4,1.2
	c0,0.7-0.3,1.3-0.8,1.7c-0.5,0.4-1.3,0.6-2.2,0.6C98.8,65.4,98,65.2,97.5,64.7"/>
<path class="st0" d="M116.6,57.2h-4.7c0,0-0.1,0-0.1,0.1v3.1c0,0,0,0.1,0.1,0.1h3.3c0.1,0,0.1,0,0.1,0.1v0.5c0,0.1,0,0.1-0.1,0.1
	h-3.3c0,0-0.1,0-0.1,0.1v3.2c0,0,0,0.1,0.1,0.1h4.7c0.1,0,0.1,0,0.1,0.1v0.5c0,0.1,0,0.1-0.1,0.1h-5.5c-0.1,0-0.1,0-0.1-0.1v-8.7
	c0-0.1,0-0.1,0.1-0.1h5.5c0.1,0,0.1,0,0.1,0.1v0.5C116.7,57.1,116.7,57.2,116.6,57.2"/>
<path class="st0" d="M130.1,65.2l-1.9-3.9c0,0,0,0-0.1,0H126c0,0-0.1,0-0.1,0.1v3.9c0,0.1,0,0.1-0.1,0.1h-0.6c-0.1,0-0.1,0-0.1-0.1
	v-8.7c0-0.1,0-0.1,0.1-0.1h3.3c0.7,0,1.3,0.2,1.8,0.7c0.4,0.5,0.7,1,0.7,1.8c0,0.6-0.2,1.1-0.5,1.5c-0.3,0.4-0.8,0.7-1.3,0.8
	c0,0,0,0,0,0.1l1.9,3.9c0,0,0,0,0,0.1c0,0.1,0,0.1-0.1,0.1h-0.7C130.1,65.3,130.1,65.3,130.1,65.2 M125.9,57.2v3.2
	c0,0,0,0.1,0.1,0.1h2.4c0.5,0,0.9-0.2,1.2-0.5c0.3-0.3,0.5-0.7,0.5-1.2c0-0.5-0.2-0.9-0.5-1.2c-0.3-0.3-0.7-0.5-1.2-0.5L125.9,57.2
	C125.9,57.2,125.9,57.2,125.9,57.2"/>
<path class="st0" d="M141.1,65.2l-2.8-8.7l0-0.1c0-0.1,0-0.1,0.1-0.1h0.7c0.1,0,0.1,0,0.2,0.1l2.3,7.5c0,0,0,0,0,0c0,0,0,0,0,0
	l2.3-7.5c0-0.1,0.1-0.1,0.2-0.1h0.7c0.1,0,0.1,0,0.1,0.1l-2.8,8.7c0,0.1-0.1,0.1-0.2,0.1h-0.7C141.2,65.3,141.1,65.3,141.1,65.2"/>
<path class="st0" d="M152.9,65.2v-8.7c0-0.1,0-0.1,0.1-0.1h0.6c0.1,0,0.1,0,0.1,0.1v8.7c0,0.1,0,0.1-0.1,0.1H153
	C152.9,65.3,152.9,65.3,152.9,65.2"/>
<path class="st0" d="M163.7,65.1c-0.4-0.2-0.8-0.6-1-1c-0.2-0.4-0.4-0.9-0.4-1.5v-3.5c0-0.6,0.1-1,0.4-1.5c0.3-0.4,0.6-0.8,1-1
	c0.4-0.2,1-0.3,1.6-0.3s1.1,0.1,1.6,0.3c0.4,0.2,0.8,0.6,1,1c0.2,0.4,0.4,0.9,0.4,1.4c0,0,0,0.1,0,0.1c0,0-0.1,0-0.1,0l-0.6,0
	c-0.1,0-0.1,0-0.1-0.1v0c0-0.6-0.2-1.1-0.6-1.4c-0.4-0.4-0.9-0.5-1.5-0.5c-0.6,0-1.1,0.2-1.5,0.5c-0.4,0.4-0.6,0.8-0.6,1.4v3.6
	c0,0.6,0.2,1.1,0.6,1.4c0.4,0.4,0.9,0.5,1.5,0.5c0.6,0,1.1-0.2,1.5-0.5c0.4-0.4,0.6-0.8,0.6-1.4v0c0-0.1,0-0.1,0.1-0.1l0.6,0
	c0.1,0,0.1,0,0.1,0.1c0,0.6-0.1,1-0.4,1.5c-0.3,0.4-0.6,0.7-1,1c-0.4,0.2-1,0.3-1.6,0.3S164.1,65.3,163.7,65.1"/>
<path class="st0" d="M182.3,57.2h-4.7c0,0-0.1,0-0.1,0.1v3.1c0,0,0,0.1,0.1,0.1h3.3c0.1,0,0.1,0,0.1,0.1v0.5c0,0.1,0,0.1-0.1,0.1
	h-3.3c0,0-0.1,0-0.1,0.1v3.2c0,0,0,0.1,0.1,0.1h4.7c0.1,0,0.1,0,0.1,0.1v0.5c0,0.1,0,0.1-0.1,0.1h-5.5c-0.1,0-0.1,0-0.1-0.1v-8.7
	c0-0.1,0-0.1,0.1-0.1h5.5c0.1,0,0.1,0,0.1,0.1v0.5C182.4,57.1,182.4,57.2,182.3,57.2"/>
<path class="st0" d="M191,64.7c-0.6-0.4-0.8-1-0.8-1.7v-0.4c0-0.1,0-0.1,0.1-0.1h0.6c0.1,0,0.1,0,0.1,0.1V63c0,0.5,0.2,0.9,0.6,1.2
	c0.4,0.3,1,0.5,1.7,0.5c0.7,0,1.1-0.1,1.5-0.4c0.3-0.3,0.5-0.6,0.5-1.1c0-0.3-0.1-0.6-0.2-0.8c-0.2-0.2-0.4-0.4-0.7-0.6
	c-0.3-0.2-0.8-0.4-1.4-0.6c-0.6-0.3-1.1-0.5-1.5-0.7c-0.4-0.2-0.6-0.4-0.9-0.7c-0.2-0.3-0.3-0.7-0.3-1.1c0-0.7,0.2-1.3,0.7-1.7
	c0.5-0.4,1.2-0.6,2-0.6c0.9,0,1.7,0.2,2.2,0.7c0.5,0.4,0.8,1,0.8,1.8V59c0,0.1,0,0.1-0.1,0.1h-0.6c-0.1,0-0.1,0-0.1-0.1v-0.2
	c0-0.5-0.2-0.9-0.6-1.2c-0.4-0.3-0.9-0.5-1.6-0.5c-0.6,0-1.1,0.1-1.4,0.4c-0.3,0.2-0.5,0.6-0.5,1.1c0,0.3,0.1,0.6,0.2,0.8
	c0.2,0.2,0.4,0.4,0.7,0.5c0.3,0.1,0.7,0.3,1.4,0.6c0.6,0.3,1.1,0.5,1.5,0.7c0.4,0.2,0.7,0.5,0.9,0.8c0.2,0.3,0.3,0.7,0.3,1.2
	c0,0.7-0.3,1.3-0.8,1.7c-0.5,0.4-1.3,0.6-2.2,0.6C192.3,65.4,191.5,65.2,191,64.7"/>
<path class="st0" d="M103.4,34.9c1.1,0,2,0.2,2.8,0.6c0.8,0.4,1.5,0.9,2.1,1.7c0.6,0.7,1,1.5,1.3,2.5c0.3,0.9,0.4,1.9,0.4,3
	c0,1.4-0.3,2.7-0.8,3.9c-0.5,1.2-1.3,2.1-2.2,2.8c-1,0.7-2.2,1-3.6,1h-5.2c-0.4,0-0.7-0.1-1-0.4c-0.3-0.3-0.4-0.6-0.4-1V36.2
	c0-0.4,0.1-0.7,0.4-1c0.3-0.3,0.6-0.4,1-0.4H103.4z M103.2,47.7c0.9,0,1.7-0.2,2.3-0.7c0.6-0.5,1-1.1,1.3-1.9
	c0.3-0.8,0.4-1.6,0.4-2.6c0-0.7-0.1-1.3-0.2-2c-0.2-0.6-0.4-1.2-0.7-1.6c-0.3-0.5-0.7-0.9-1.2-1.1c-0.5-0.3-1.1-0.4-1.8-0.4h-3.8
	l0.2-0.2v10.7l-0.1-0.2H103.2z"/>
<path class="st0" d="M125.1,48.9c-0.1-0.4-0.3-0.6-0.6-0.8c-0.2-0.1-0.3-0.2-0.4-0.4c-0.1-0.2-0.1-0.4-0.1-0.7c0-0.3-0.1-0.6-0.1-1
	c0-0.4-0.1-0.8-0.3-1.1c-0.2-0.3-0.4-0.7-0.6-1c-0.2-0.2-0.4-0.4-0.6-0.5c0.3-0.2,0.6-0.4,0.9-0.7c0.4-0.4,0.7-0.9,0.9-1.4
	c0.2-0.5,0.3-1.1,0.3-1.6c0-0.9-0.2-1.7-0.6-2.4c-0.4-0.7-0.9-1.3-1.6-1.7c-0.7-0.4-1.4-0.6-2.1-0.6h-6.3c-0.4,0-0.7,0.1-1,0.4
	c-0.3,0.3-0.4,0.6-0.4,1v12.7c0,0.4,0.2,0.7,0.5,1c0.3,0.3,0.7,0.4,1.1,0.4c0.4,0,0.7-0.1,0.9-0.4c0.2-0.3,0.3-0.6,0.3-1v-4.3h4.1
	c0.3,0,0.6,0,0.9,0.1c0.2,0.1,0.5,0.2,0.6,0.4c0.2,0.2,0.3,0.3,0.4,0.5c0.1,0.2,0.1,0.4,0.1,0.7c0,0.8,0.1,1.4,0.2,1.9
	c0.2,0.5,0.4,0.9,0.6,1.2c0.2,0.3,0.5,0.5,0.7,0.6c0.2,0.1,0.4,0.2,0.6,0.2c0.2,0.1,0.5,0.1,0.7,0c0.2-0.1,0.5-0.2,0.6-0.4
	C125.1,49.5,125.2,49.2,125.1,48.9 M121.4,41c-0.2,0.4-0.4,0.7-0.6,1c-0.2,0.2-0.5,0.4-0.8,0.4h-4.8v-5h4.8c0.4,0,0.8,0.2,1.1,0.6
	c0.3,0.4,0.5,1,0.5,1.6C121.6,40.1,121.6,40.6,121.4,41"/>
<path class="st0" d="M141.4,42.5c0,1.1-0.2,2.1-0.5,3.1c-0.4,1-0.9,1.8-1.5,2.5c-0.7,0.7-1.5,1.3-2.4,1.7c-0.9,0.4-1.9,0.6-3,0.6
	c-1.1,0-2.1-0.2-3-0.6c-0.9-0.4-1.7-1-2.4-1.7c-0.7-0.7-1.2-1.6-1.5-2.5c-0.4-1-0.5-2-0.5-3.1c0-1.1,0.2-2.1,0.5-3.1
	c0.4-1,0.9-1.8,1.5-2.5c0.7-0.7,1.4-1.3,2.4-1.7c0.9-0.4,1.9-0.6,3-0.6c1.1,0,2.1,0.2,3,0.6c0.9,0.4,1.7,1,2.4,1.7
	c0.7,0.7,1.2,1.6,1.5,2.5C141.3,40.4,141.4,41.4,141.4,42.5 M138.6,42.5c0-1-0.2-1.9-0.6-2.7c-0.4-0.8-0.9-1.4-1.6-1.9
	c-0.7-0.5-1.5-0.7-2.4-0.7c-0.9,0-1.7,0.2-2.4,0.7c-0.7,0.5-1.2,1.1-1.6,1.9c-0.4,0.8-0.6,1.7-0.6,2.7c0,1,0.2,1.9,0.6,2.7
	c0.4,0.8,0.9,1.4,1.6,1.9c0.7,0.5,1.5,0.7,2.4,0.7c0.9,0,1.7-0.2,2.4-0.7c0.7-0.5,1.2-1.1,1.6-1.9C138.4,44.4,138.6,43.5,138.6,42.5
	"/>
<path class="st0" d="M156.5,35.2c-0.2-0.2-0.5-0.4-0.9-0.4c-0.4,0-0.7,0.1-0.9,0.4c-0.2,0.2-0.3,0.5-0.3,0.9v9.4l-8-10.2
	c-0.1-0.2-0.3-0.3-0.5-0.4c-0.2-0.1-0.4-0.1-0.6-0.1c-0.4,0-0.7,0.1-1,0.4c-0.3,0.3-0.4,0.6-0.4,1V49c0,0.4,0.1,0.6,0.3,0.9
	c0.2,0.2,0.5,0.4,0.9,0.4c0.4,0,0.7-0.1,0.9-0.4c0.2-0.2,0.3-0.5,0.3-0.9v-9.4l8,10.2c0.1,0.1,0.3,0.2,0.4,0.3
	c0.2,0.1,0.4,0.1,0.6,0.1c0.4,0,0.7-0.1,1-0.4c0.3-0.3,0.4-0.6,0.4-1V36.1C156.8,35.7,156.7,35.4,156.5,35.2"/>
<path class="st0" d="M161.4,34.9h7.3c0.4,0,0.7,0.1,1,0.4c0.3,0.2,0.4,0.6,0.4,0.9c0,0.4-0.1,0.7-0.4,0.9c-0.3,0.2-0.6,0.3-1,0.3
	h-6.1l0.2-0.4v4.3l-0.2-0.2h5.1c0.4,0,0.7,0.1,1,0.4c0.3,0.2,0.4,0.6,0.4,0.9c0,0.4-0.1,0.7-0.4,0.9c-0.3,0.2-0.6,0.3-1,0.3h-5.1
	l0.1-0.2v4.4l-0.2-0.2h6.1c0.4,0,0.7,0.1,1,0.4c0.3,0.3,0.4,0.6,0.4,0.9c0,0.4-0.1,0.7-0.4,0.9c-0.3,0.2-0.6,0.4-1,0.4h-7.3
	c-0.4,0-0.7-0.1-1-0.4c-0.3-0.3-0.4-0.6-0.4-1V36.2c0-0.4,0.1-0.7,0.4-1C160.7,35,161,34.9,161.4,34.9"/>
<path class="st0" d="M190.8,48.5l-5.4-12.8c-0.1-0.3-0.3-0.5-0.5-0.6c-0.2-0.2-0.5-0.2-0.7-0.2c-0.3,0-0.5,0-0.8,0.2
	c-0.2,0.2-0.4,0.4-0.5,0.7l-5.5,13.1c0,0.1-0.1,0.3-0.1,0.4c0,0.3,0.1,0.6,0.3,0.8c0.2,0.2,0.5,0.3,0.9,0.3c0.2,0,0.5-0.1,0.7-0.2
	c0.2-0.2,0.4-0.4,0.5-0.6l1.1-2.7h6.5l1.1,2.7c0.1,0.3,0.3,0.5,0.5,0.7c0.2,0.2,0.4,0.2,0.7,0.2c0.3,0,0.6-0.1,0.8-0.4
	c0.3-0.2,0.4-0.5,0.4-0.9C190.9,48.9,190.9,48.7,190.8,48.5 M181.9,44.2l2.2-5.1l2.2,5.1H181.9z"/>
<path class="st0" d="M194.2,38.5c-0.4,0-0.7,0.1-0.9,0.4c-0.2,0.3-0.4,0.6-0.4,1v9.1c0,0.4,0.1,0.7,0.4,1c0.2,0.3,0.6,0.4,0.9,0.4
	c0.4,0,0.7-0.1,0.9-0.4c0.2-0.3,0.4-0.6,0.4-1v-9.1c0-0.4-0.1-0.7-0.4-1C194.9,38.6,194.6,38.5,194.2,38.5"/>
<path class="st0" d="M195.6,36c0,0.8-0.6,1.4-1.4,1.4c-0.8,0-1.4-0.6-1.4-1.4c0-0.8,0.6-1.4,1.4-1.4C195,34.6,195.6,35.2,195.6,36"
	/>
<g>
	<g>
		<g>
			<defs>
				<rect id="SVGID_65_" x="49.9" y="58.4" width="6.4" height="31.3"/>
			</defs>
			<clipPath id="SVGID_2_">
				<use xlink:href="#SVGID_65_"  style="overflow:visible;"/>
			</clipPath>
			<g style="clip-path:url(#SVGID_2_);">
				
					<image style="overflow:visible;" width="15" height="66" xlink:href="85496ABF.jpg"  transform="matrix(0.48 0 0 0.48 49.44 58.24)">
				</image>
			</g>
		</g>
	</g>
	<path class="st1" d="M49.9,59.1c0.2,0.9,1.3,7.1,2,10.4c0.2,0.8,0.3,1.5-0.2,2.3c-0.2,0.2-0.1,0.7-0.1,1c1,5.2,2,10.5,3.1,15.7
		c0.1,0.5,0.2,0.8,0.5,1c0.2,0.1,0.6,0.2,1.2,0.1c-2.1-10.4-4.1-20.8-6.2-31.2C50.1,58.4,49.9,59.1,49.9,59.1"/>
	<g>
		<g>
			<defs>
				<rect id="SVGID_67_" x="40.4" y="11.2" width="6.5" height="31.2"/>
			</defs>
			<clipPath id="SVGID_4_">
				<use xlink:href="#SVGID_67_"  style="overflow:visible;"/>
			</clipPath>
			<g style="clip-path:url(#SVGID_4_);">
				
					<image style="overflow:visible;" width="14" height="66" xlink:href="85496ABA.jpg"  transform="matrix(0.48 0 0 0.48 40.32 11.2)">
				</image>
			</g>
		</g>
	</g>
	<path class="st1" d="M40.4,11.2c2.1,10.4,4.2,20.8,6.2,31.2c0,0,0.3-0.7,0.3-0.7c-0.2-0.9-1.3-7.1-2-10.4c-0.2-0.8-0.3-1.5,0.2-2.3
		c0.2-0.2,0.1-0.7,0.1-1c-1-5.2-2.1-10.5-3.1-15.7c-0.1-0.5-0.2-0.8-0.5-0.9c-0.2-0.1-0.4-0.1-0.7-0.1
		C40.7,11.2,40.6,11.2,40.4,11.2"/>
	<g>
		<g>
			<defs>
				<rect id="SVGID_69_" x="47" y="58.6" width="1.6" height="31.8"/>
			</defs>
			<clipPath id="SVGID_6_">
				<use xlink:href="#SVGID_69_"  style="overflow:visible;"/>
			</clipPath>
			<g style="clip-path:url(#SVGID_6_);">
				
					<image style="overflow:visible;" width="5" height="68" xlink:href="85496AB9.jpg"  transform="matrix(0.48 0 0 0.48 46.56 58.24)">
				</image>
			</g>
		</g>
	</g>
	<path class="st1" d="M48.2,59.2c0,0.9-0.1,7.2-0.1,10.6c0,0.8,0,1.6-0.7,2.2c-0.2,0.2-0.3,0.7-0.3,1c0,5.3-0.1,10.7-0.1,16
		c0,0.5,0.1,0.8,0.3,1c0.2,0.2,0.6,0.3,1.1,0.4c0.1-10.6,0.1-21.2,0.2-31.8c0,0,0,0,0,0C48.5,58.6,48.2,59.2,48.2,59.2"/>
	<g>
		<g>
			<defs>
				<rect id="SVGID_71_" x="48.3" y="10.4" width="1.6" height="31.8"/>
			</defs>
			<clipPath id="SVGID_8_">
				<use xlink:href="#SVGID_71_"  style="overflow:visible;"/>
			</clipPath>
			<g style="clip-path:url(#SVGID_8_);">
				
					<image style="overflow:visible;" width="4" height="67" xlink:href="85496AC6.jpg"  transform="matrix(0.48 0 0 0.48 48 10.24)">
				</image>
			</g>
		</g>
	</g>
	<path class="st1" d="M48.3,42.2c0,0,0.4-0.6,0.4-0.6c0-0.9,0.1-7.2,0.1-10.5c0-0.8,0-1.6,0.6-2.2c0.2-0.2,0.3-0.7,0.3-1
		c0.1-5.3,0.1-10.7,0.1-16c0-0.5-0.1-0.8-0.3-1c-0.2-0.2-0.6-0.3-1.1-0.3C48.4,21,48.3,31.6,48.3,42.2"/>
	<g>
		<g>
			<defs>
				<rect id="SVGID_73_" x="39.6" y="58.5" width="7.3" height="31.2"/>
			</defs>
			<clipPath id="SVGID_10_">
				<use xlink:href="#SVGID_73_"  style="overflow:visible;"/>
			</clipPath>
			<g style="clip-path:url(#SVGID_10_);">
				
					<image style="overflow:visible;" width="16" height="66" xlink:href="85496AC9.jpg"  transform="matrix(0.48 0 0 0.48 39.36 58.24)">
				</image>
			</g>
		</g>
	</g>
	<path class="st1" d="M46.4,59.1c-0.2,0.9-1.5,7.1-2.1,10.3c-0.2,0.8-0.3,1.6-1.1,2.1c-0.3,0.2-0.4,0.6-0.5,0.9
		c-1,5.2-2.1,10.5-3.1,15.7c-0.1,0.5-0.1,0.8,0.1,1.1c0.2,0.2,0.5,0.4,1,0.6c2-10.4,4.1-20.8,6.1-31.2c0,0,0,0,0,0
		C46.9,58.5,46.4,59,46.4,59.1"/>
	<g>
		<g>
			<defs>
				<rect id="SVGID_75_" x="49.8" y="11.1" width="7.4" height="31.2"/>
			</defs>
			<clipPath id="SVGID_12_">
				<use xlink:href="#SVGID_75_"  style="overflow:visible;"/>
			</clipPath>
			<g style="clip-path:url(#SVGID_12_);">
				
					<image style="overflow:visible;" width="17" height="66" xlink:href="85496ACA.jpg"  transform="matrix(0.48 0 0 0.48 49.44 10.72)">
				</image>
			</g>
		</g>
	</g>
	<path class="st1" d="M49.8,42.3c0,0,0.5-0.5,0.5-0.6c0.2-0.9,1.5-7.1,2.1-10.3c0.2-0.8,0.3-1.6,1.1-2.1c0.3-0.2,0.4-0.6,0.5-0.9
		c1.1-5.2,2.1-10.5,3.1-15.7c0.1-0.5,0.1-0.8-0.1-1.1c-0.2-0.2-0.5-0.4-1-0.6C54,21.5,51.9,31.9,49.8,42.3"/>
	<g>
		<g>
			<defs>
				<rect id="SVGID_77_" x="51.6" y="57.9" width="12.4" height="29.5"/>
			</defs>
			<clipPath id="SVGID_14_">
				<use xlink:href="#SVGID_77_"  style="overflow:visible;"/>
			</clipPath>
			<g style="clip-path:url(#SVGID_14_);">
				
					<image style="overflow:visible;" width="27" height="62" xlink:href="85496AC8.jpg"  transform="matrix(0.48 0 0 0.48 51.36 57.76)">
				</image>
			</g>
		</g>
	</g>
	<path class="st1" d="M51.6,58.6c0.3,0.8,2.7,6.7,4,9.8c0.3,0.7,0.6,1.4,0.3,2.3c-0.1,0.3,0,0.7,0.1,1c2,4.9,4.1,9.9,6.2,14.8
		c0.2,0.5,0.4,0.7,0.7,0.8c0.3,0.1,0.6,0,1.2-0.1c-4.1-9.8-8.2-19.6-12.3-29.4C51.7,57.9,51.6,58.6,51.6,58.6"/>
	<g>
		<g>
			<defs>
				<rect id="SVGID_79_" x="53.1" y="57" width="18" height="26.6"/>
			</defs>
			<clipPath id="SVGID_16_">
				<use xlink:href="#SVGID_79_"  style="overflow:visible;"/>
			</clipPath>
			<g style="clip-path:url(#SVGID_16_);">
				
					<image style="overflow:visible;" width="39" height="56" xlink:href="85496ACD.jpg"  transform="matrix(0.48 0 0 0.48 52.8 56.8)">
				</image>
			</g>
		</g>
	</g>
	<path class="st1" d="M53.2,57.8c0.5,0.7,4,6,5.9,8.8c0.5,0.7,0.9,1.3,0.7,2.2c-0.1,0.3,0.1,0.7,0.3,1c3,4.4,6,8.8,9.1,13.2
		c0.3,0.4,0.5,0.6,0.8,0.7c0.3,0,0.6-0.1,1.1-0.3c-6-8.8-12-17.5-18-26.2C53.1,57.1,53.2,57.8,53.2,57.8"/>
	<g>
		<g>
			<defs>
				<rect id="SVGID_81_" x="54.3" y="56.1" width="22.5" height="23.1"/>
			</defs>
			<clipPath id="SVGID_18_">
				<use xlink:href="#SVGID_81_"  style="overflow:visible;"/>
			</clipPath>
			<g style="clip-path:url(#SVGID_18_);">
				
					<image style="overflow:visible;" width="48" height="49" xlink:href="85496ACE.jpg"  transform="matrix(0.48 0 0 0.48 54.24 55.84)">
				</image>
			</g>
		</g>
	</g>
	<path class="st1" d="M54.5,56.9c0.6,0.6,5.1,5.2,7.4,7.5c0.6,0.6,1.1,1.1,1.1,2c0,0.3,0.3,0.7,0.5,0.9c3.8,3.8,7.5,7.6,11.3,11.3
		c0.4,0.4,0.6,0.5,0.9,0.5c0.3,0,0.6-0.2,1-0.5c-7.5-7.5-15-15-22.5-22.5C54.3,56.1,54.5,56.8,54.5,56.9"/>
	<g>
		<g>
			<defs>
				<rect id="SVGID_83_" x="55.3" y="54.8" width="26.6" height="18.4"/>
			</defs>
			<clipPath id="SVGID_20_">
				<use xlink:href="#SVGID_83_"  style="overflow:visible;"/>
			</clipPath>
			<g style="clip-path:url(#SVGID_20_);">
				
					<image style="overflow:visible;" width="56" height="40" xlink:href="439C6D91.jpg"  transform="matrix(0.48 0 0 0.48 55.2 54.4)">
				</image>
			</g>
		</g>
	</g>
	<path class="st1" d="M55.6,55.5c0.7,0.5,6,4.1,8.8,5.9c0.7,0.4,1.3,0.8,1.5,1.8c0.1,0.3,0.4,0.6,0.7,0.8c4.4,3,8.9,5.9,13.4,8.8
		c0.4,0.3,0.7,0.4,1,0.3c0.3-0.1,0.5-0.3,0.9-0.7C73,66.5,64.2,60.6,55.3,54.8C55.3,54.8,55.6,55.5,55.6,55.5"/>
	<g>
		<g>
			<defs>
				<rect id="SVGID_85_" x="56" y="53.3" width="29.5" height="13.1"/>
			</defs>
			<clipPath id="SVGID_22_">
				<use xlink:href="#SVGID_85_"  style="overflow:visible;"/>
			</clipPath>
			<g style="clip-path:url(#SVGID_22_);">
				
					<image style="overflow:visible;" width="63" height="29" xlink:href="439C6D92.jpg"  transform="matrix(0.48 0 0 0.48 55.68 52.96)">
				</image>
			</g>
		</g>
	</g>
	<path class="st1" d="M56.5,54c0.8,0.4,6.7,2.8,9.7,4.1c0.7,0.3,1.5,0.6,1.8,1.4c0.1,0.3,0.5,0.5,0.8,0.6c4.9,2,9.9,4.1,14.8,6.1
		c0.5,0.2,0.8,0.3,1.1,0.1c0.2-0.1,0.5-0.4,0.7-0.9c-9.8-4-19.6-8-29.5-12C56,53.4,56.4,54,56.5,54"/>
	<g>
		<g>
			<defs>
				<rect id="SVGID_87_" x="56.5" y="51.7" width="31.3" height="7.2"/>
			</defs>
			<clipPath id="SVGID_24_">
				<use xlink:href="#SVGID_87_"  style="overflow:visible;"/>
			</clipPath>
			<g style="clip-path:url(#SVGID_24_);">
				
					<image style="overflow:visible;" width="66" height="16" xlink:href="439C6D93.jpg"  transform="matrix(0.48 0 0 0.48 56.16 51.52)">
				</image>
			</g>
		</g>
	</g>
	<path class="st1" d="M57,52.3c0.9,0.2,7.1,1.4,10.4,2.1c0.8,0.1,1.6,0.3,2.1,1c0.2,0.3,0.6,0.4,0.9,0.5c5.2,1,10.5,2,15.7,3
		c0.5,0.1,0.8,0.1,1.1-0.1c0.2-0.2,0.4-0.5,0.6-1c-10.4-2-20.8-4-31.3-5.9C56.5,51.8,57,52.3,57,52.3"/>
	<g>
		<g>
			<defs>
				<rect id="SVGID_89_" x="56.6" y="50.2" width="31.8" height="1.4"/>
			</defs>
			<clipPath id="SVGID_26_">
				<use xlink:href="#SVGID_89_"  style="overflow:visible;"/>
			</clipPath>
			<g style="clip-path:url(#SVGID_26_);">
				
					<image style="overflow:visible;" width="68" height="4" xlink:href="439C6D94.jpg"  transform="matrix(0.48 0 0 0.48 56.16 50.08)">
				</image>
			</g>
		</g>
	</g>
	<path class="st1" d="M57.2,50.6c0.9,0,7.2,0.1,10.6,0.1c0.8,0,1.6,0,2.2,0.6c0.2,0.2,0.7,0.3,1,0.3c5.3,0,10.7,0,16,0
		c0.5,0,0.8-0.1,1-0.3c0.2-0.2,0.3-0.6,0.4-1.1c-10.6,0-21.2,0-31.8,0C56.6,50.3,57.2,50.6,57.2,50.6"/>
	<g>
		<g>
			<defs>
				<rect id="SVGID_91_" x="56.4" y="42.3" width="31.2" height="6.6"/>
			</defs>
			<clipPath id="SVGID_28_">
				<use xlink:href="#SVGID_91_"  style="overflow:visible;"/>
			</clipPath>
			<g style="clip-path:url(#SVGID_28_);">
				
					<image style="overflow:visible;" width="66" height="15" xlink:href="439C6D90.jpg"  transform="matrix(0.48 0 0 0.48 56.16 41.92)">
				</image>
			</g>
		</g>
	</g>
	<path class="st1" d="M56.4,48.6c0,0,0.7,0.3,0.7,0.3c0.9-0.2,7.1-1.4,10.4-2c0.8-0.2,1.5-0.4,2.3,0.2c0.2,0.2,0.7,0.1,1,0.1
		c5.2-1.1,10.5-2.1,15.7-3.2c0.5-0.1,0.8-0.2,0.9-0.5c0.1-0.2,0.2-0.6,0.1-1.2C77.2,44.4,66.8,46.5,56.4,48.6"/>
	<g>
		<g>
			<defs>
				<rect id="SVGID_93_" x="55.9" y="35" width="29.6" height="12.3"/>
			</defs>
			<clipPath id="SVGID_30_">
				<use xlink:href="#SVGID_93_"  style="overflow:visible;"/>
			</clipPath>
			<g style="clip-path:url(#SVGID_30_);">
				
					<image style="overflow:visible;" width="63" height="27" xlink:href="439C6D9F.jpg"  transform="matrix(0.48 0 0 0.48 55.68 34.72)">
				</image>
			</g>
		</g>
	</g>
	<path class="st1" d="M55.9,47.1c0,0,0.7,0.2,0.7,0.1c0.8-0.3,6.7-2.7,9.8-3.9c0.7-0.3,1.5-0.6,2.3-0.3c0.3,0.1,0.7,0,1-0.1
		c4.9-2,9.9-4.1,14.8-6.1c0.5-0.2,0.7-0.4,0.8-0.7c0.1-0.3,0-0.6-0.1-1.2C75.5,39.1,65.7,43.1,55.9,47.1"/>
	<g>
		<g>
			<defs>
				<rect id="SVGID_95_" x="14.9" y="27.7" width="26.6" height="18.3"/>
			</defs>
			<clipPath id="SVGID_32_">
				<use xlink:href="#SVGID_95_"  style="overflow:visible;"/>
			</clipPath>
			<g style="clip-path:url(#SVGID_32_);">
				
					<image style="overflow:visible;" width="56" height="39" xlink:href="439C6D9D.jpg"  transform="matrix(0.48 0 0 0.48 14.88 27.52)">
				</image>
			</g>
		</g>
	</g>
	<path class="st1" d="M15.9,27.8c-0.3,0.1-0.5,0.3-0.9,0.7c8.9,5.8,17.7,11.7,26.6,17.5c0,0-0.3-0.7-0.3-0.7c-0.7-0.5-6-4.1-8.8-5.9
		c-0.7-0.4-1.3-0.8-1.5-1.8c-0.1-0.3-0.4-0.6-0.7-0.8c-4.5-2.9-8.9-5.9-13.4-8.8c-0.3-0.2-0.6-0.3-0.8-0.3
		C16,27.7,15.9,27.8,15.9,27.8"/>
	<g>
		<g>
			<defs>
				<rect id="SVGID_97_" x="11.4" y="34.5" width="29.5" height="13"/>
			</defs>
			<clipPath id="SVGID_34_">
				<use xlink:href="#SVGID_97_"  style="overflow:visible;"/>
			</clipPath>
			<g style="clip-path:url(#SVGID_34_);">
				
					<image style="overflow:visible;" width="63" height="28" xlink:href="439C6D9A.jpg"  transform="matrix(0.48 0 0 0.48 11.04 34.24)">
				</image>
			</g>
		</g>
	</g>
	<path class="st1" d="M12.1,34.6c-0.2,0.1-0.5,0.4-0.7,0.9c9.8,4,19.6,8,29.5,12c0,0-0.4-0.6-0.4-0.6c-0.8-0.4-6.7-2.8-9.7-4.1
		c-0.7-0.3-1.5-0.6-1.8-1.4c-0.1-0.3-0.5-0.5-0.8-0.6c-4.9-2-9.9-4-14.8-6c-0.3-0.1-0.5-0.2-0.7-0.2C12.3,34.5,12.2,34.5,12.1,34.6"
		/>
	<g>
		<g>
			<defs>
				<rect id="SVGID_99_" x="9.1" y="42" width="31.3" height="7.1"/>
			</defs>
			<clipPath id="SVGID_36_">
				<use xlink:href="#SVGID_99_"  style="overflow:visible;"/>
			</clipPath>
			<g style="clip-path:url(#SVGID_36_);">
				
					<image style="overflow:visible;" width="66" height="15" xlink:href="439C6D9C.jpg"  transform="matrix(0.48 0 0 0.48 9.12 41.92)">
				</image>
			</g>
		</g>
	</g>
	<path class="st1" d="M9.7,42.2c-0.2,0.2-0.4,0.5-0.6,1c10.4,2,20.9,3.9,31.3,5.9c0,0-0.5-0.5-0.6-0.5c-0.9-0.2-7.1-1.4-10.4-2
		c-0.8-0.1-1.6-0.3-2.1-1c-0.2-0.3-0.6-0.4-0.9-0.5c-5.2-1-10.5-2-15.7-3c-0.2,0-0.4-0.1-0.5-0.1C10,42,9.8,42.1,9.7,42.2"/>
	<g>
		<g>
			<defs>
				<rect id="SVGID_101_" x="8.4" y="49.2" width="31.8" height="1.4"/>
			</defs>
			<clipPath id="SVGID_38_">
				<use xlink:href="#SVGID_101_"  style="overflow:visible;"/>
			</clipPath>
			<g style="clip-path:url(#SVGID_38_);">
				
					<image style="overflow:visible;" width="67" height="4" xlink:href="439C6DAA.jpg"  transform="matrix(0.48 0 0 0.48 8.16 49.12)">
				</image>
			</g>
		</g>
	</g>
	<path class="st1" d="M9.8,49.2c-0.5,0-0.8,0.1-1,0.3c-0.2,0.2-0.3,0.6-0.4,1.1c10.6,0,21.2,0,31.8,0c0,0-0.6-0.4-0.6-0.4
		c-0.9,0-7.2-0.1-10.6-0.1c-0.8,0-1.6,0-2.2-0.6c-0.2-0.2-0.7-0.3-1-0.3c-2.3,0-4.6,0-6.9,0C15.9,49.2,12.8,49.2,9.8,49.2"/>
	<g>
		<g>
			<defs>
				<rect id="SVGID_103_" x="9.2" y="52" width="31.2" height="6.6"/>
			</defs>
			<clipPath id="SVGID_40_">
				<use xlink:href="#SVGID_103_"  style="overflow:visible;"/>
			</clipPath>
			<g style="clip-path:url(#SVGID_40_);">
				
					<image style="overflow:visible;" width="66" height="14" xlink:href="439C6DBF.jpg"  transform="matrix(0.48 0 0 0.48 9.12 52)">
				</image>
			</g>
		</g>
	</g>
	<path class="st1" d="M39.8,52c-0.9,0.2-7.1,1.3-10.4,2c-0.8,0.2-1.5,0.3-2.3-0.2c-0.2-0.2-0.7-0.1-1-0.1c-5.2,1-10.5,2.1-15.7,3.2
		c-0.5,0.1-0.8,0.2-1,0.5c-0.1,0.2-0.2,0.6-0.1,1.2c10.4-2.1,20.8-4.2,31.2-6.3C40.5,52.2,39.8,52,39.8,52C39.8,52,39.8,52,39.8,52"
		/>
	<g>
		<g>
			<defs>
				<rect id="SVGID_105_" x="11.3" y="53.6" width="29.6" height="12.2"/>
			</defs>
			<clipPath id="SVGID_42_">
				<use xlink:href="#SVGID_105_"  style="overflow:visible;"/>
			</clipPath>
			<g style="clip-path:url(#SVGID_42_);">
				
					<image style="overflow:visible;" width="63" height="26" xlink:href="439C6DBD.jpg"  transform="matrix(0.48 0 0 0.48 11.04 53.44)">
				</image>
			</g>
		</g>
	</g>
	<path class="st1" d="M40.2,53.6c-0.8,0.3-6.7,2.7-9.8,3.9c-0.7,0.3-1.5,0.6-2.3,0.3c-0.3-0.1-0.7,0-1,0.1c-4.9,2-9.9,4-14.8,6.1
		c-0.5,0.2-0.7,0.4-0.8,0.7c-0.1,0.3,0,0.6,0.1,1.2c9.8-4,19.6-8.1,29.4-12.1C40.9,53.7,40.3,53.6,40.2,53.6
		C40.2,53.6,40.2,53.6,40.2,53.6"/>
	<g>
		<g>
			<defs>
				<rect id="SVGID_107_" x="15" y="55.1" width="26.8" height="17.8"/>
			</defs>
			<clipPath id="SVGID_44_">
				<use xlink:href="#SVGID_107_"  style="overflow:visible;"/>
			</clipPath>
			<g style="clip-path:url(#SVGID_44_);">
				
					<image style="overflow:visible;" width="56" height="38" xlink:href="439C6DB4.jpg"  transform="matrix(0.48 0 0 0.48 14.88 54.88)">
				</image>
			</g>
		</g>
	</g>
	<path class="st1" d="M41,55.2c-0.7,0.5-6.1,4-8.8,5.8c-0.7,0.5-1.3,0.9-2.2,0.7c-0.3-0.1-0.7,0.1-1,0.3c-4.4,3-8.9,5.9-13.3,8.9
		c-0.4,0.3-0.7,0.5-0.7,0.8c0,0.3,0.1,0.6,0.3,1.1c8.8-5.9,17.6-11.9,26.4-17.8c0,0-0.1,0-0.2,0C41.3,55.1,41,55.2,41,55.2"/>
	<g>
		<g>
			<defs>
				<rect id="SVGID_109_" x="19.6" y="56.3" width="23.1" height="22.5"/>
			</defs>
			<clipPath id="SVGID_46_">
				<use xlink:href="#SVGID_109_"  style="overflow:visible;"/>
			</clipPath>
			<g style="clip-path:url(#SVGID_46_);">
				
					<image style="overflow:visible;" width="49" height="48" xlink:href="439C6DB5.jpg"  transform="matrix(0.48 0 0 0.48 19.2 55.84)">
				</image>
			</g>
		</g>
	</g>
	<path class="st1" d="M42,56.5c-0.6,0.6-5.2,5-7.5,7.4c-0.6,0.6-1.1,1.1-2,1.1c-0.3,0-0.7,0.3-0.9,0.5c-3.8,3.8-7.6,7.5-11.4,11.3
		c-0.4,0.4-0.5,0.6-0.5,0.9c0,0.3,0.2,0.6,0.5,1c7.5-7.5,15-15,22.6-22.4c0,0,0,0,0,0C42.5,56.3,42,56.4,42,56.5"/>
	<g>
		<g>
			<defs>
				<rect id="SVGID_111_" x="25.5" y="57.4" width="18.5" height="26.5"/>
			</defs>
			<clipPath id="SVGID_48_">
				<use xlink:href="#SVGID_111_"  style="overflow:visible;"/>
			</clipPath>
			<g style="clip-path:url(#SVGID_48_);">
				
					<image style="overflow:visible;" width="39" height="56" xlink:href="439C6D88.jpg"  transform="matrix(0.48 0 0 0.48 25.44 57.28)">
				</image>
			</g>
		</g>
	</g>
	<path class="st1" d="M43.2,57.7c-0.5,0.7-4.1,6-5.9,8.7c-0.4,0.7-0.8,1.3-1.8,1.5c-0.3,0.1-0.6,0.4-0.8,0.7
		c-3,4.4-5.9,8.9-8.9,13.3c-0.3,0.4-0.4,0.7-0.3,1c0.1,0.3,0.3,0.5,0.7,0.9c5.9-8.8,11.8-17.7,17.6-26.5c0,0,0,0,0,0
		C43.9,57.4,43.3,57.6,43.2,57.7"/>
	<g>
		<g>
			<defs>
				<rect id="SVGID_113_" x="32.4" y="58" width="13.1" height="29.5"/>
			</defs>
			<clipPath id="SVGID_50_">
				<use xlink:href="#SVGID_113_"  style="overflow:visible;"/>
			</clipPath>
			<g style="clip-path:url(#SVGID_50_);">
				
					<image style="overflow:visible;" width="28" height="62" xlink:href="439C6D83.jpg"  transform="matrix(0.48 0 0 0.48 32.16 57.76)">
				</image>
			</g>
		</g>
	</g>
	<path class="st1" d="M44.8,58.4c-0.4,0.8-2.8,6.7-4.1,9.7c-0.3,0.7-0.6,1.5-1.4,1.8c-0.3,0.1-0.5,0.5-0.6,0.8
		c-2,4.9-4.1,9.9-6.1,14.8c-0.2,0.5-0.3,0.8-0.1,1.1c0.1,0.2,0.4,0.5,0.9,0.7c4-9.8,8-19.6,12-29.5c0,0,0,0,0,0
		C45.4,58,44.8,58.4,44.8,58.4"/>
	<g>
		<g>
			<defs>
				<rect id="SVGID_115_" x="55.1" y="28" width="26.8" height="17.8"/>
			</defs>
			<clipPath id="SVGID_52_">
				<use xlink:href="#SVGID_115_"  style="overflow:visible;"/>
			</clipPath>
			<g style="clip-path:url(#SVGID_52_);">
				
					<image style="overflow:visible;" width="57" height="38" xlink:href="439C6D84.jpg"  transform="matrix(0.48 0 0 0.48 54.72 27.52)">
				</image>
			</g>
		</g>
	</g>
	<path class="st1" d="M55.1,45.7c0,0,0.7,0,0.8,0c0.7-0.5,6.1-4,8.8-5.8c0.7-0.5,1.3-0.9,2.2-0.7c0.3,0.1,0.7-0.1,1-0.3
		c4.4-3,8.9-5.9,13.3-8.9c0.4-0.3,0.7-0.5,0.7-0.8c0-0.3-0.1-0.6-0.3-1.1C72.7,33.9,63.9,39.8,55.1,45.7"/>
	<g>
		<g>
			<defs>
				<rect id="SVGID_117_" x="54.1" y="22.2" width="23.2" height="22.4"/>
			</defs>
			<clipPath id="SVGID_54_">
				<use xlink:href="#SVGID_117_"  style="overflow:visible;"/>
			</clipPath>
			<g style="clip-path:url(#SVGID_54_);">
				
					<image style="overflow:visible;" width="49" height="48" xlink:href="439C6D85.jpg"  transform="matrix(0.48 0 0 0.48 53.76 21.76)">
				</image>
			</g>
		</g>
	</g>
	<path class="st1" d="M54.1,44.5c0,0,0.7-0.1,0.7-0.2c0.6-0.6,5.2-5,7.6-7.4c0.6-0.6,1.1-1.1,2-1.1c0.3,0,0.7-0.3,0.9-0.5
		c3.8-3.7,7.6-7.5,11.4-11.3c0.4-0.4,0.5-0.6,0.5-0.9c0-0.3-0.2-0.6-0.5-1C69.2,29.6,61.6,37.1,54.1,44.5"/>
	<g>
		<g>
			<defs>
				<rect id="SVGID_119_" x="52.8" y="17.1" width="18.6" height="26.4"/>
			</defs>
			<clipPath id="SVGID_56_">
				<use xlink:href="#SVGID_119_"  style="overflow:visible;"/>
			</clipPath>
			<g style="clip-path:url(#SVGID_56_);">
				
					<image style="overflow:visible;" width="39" height="56" xlink:href="439C6D86.jpg"  transform="matrix(0.48 0 0 0.48 52.8 16.96)">
				</image>
			</g>
		</g>
	</g>
	<path class="st1" d="M52.8,43.5c0,0,0.7-0.3,0.7-0.3c0.5-0.7,4.1-6,6-8.7c0.4-0.7,0.9-1.3,1.8-1.5c0.3,0,0.6-0.4,0.8-0.7
		c3-4.4,6-8.8,8.9-13.3c0.3-0.4,0.4-0.7,0.3-1c-0.1-0.3-0.3-0.5-0.7-0.9C64.7,25.9,58.8,34.7,52.8,43.5"/>
	<g>
		<g>
			<defs>
				<rect id="SVGID_121_" x="51.4" y="13.4" width="13.3" height="29.4"/>
			</defs>
			<clipPath id="SVGID_58_">
				<use xlink:href="#SVGID_121_"  style="overflow:visible;"/>
			</clipPath>
			<g style="clip-path:url(#SVGID_58_);">
				
					<image style="overflow:visible;" width="28" height="62" xlink:href="439C6D87.jpg"  transform="matrix(0.48 0 0 0.48 51.36 13.12)">
				</image>
			</g>
		</g>
	</g>
	<path class="st1" d="M51.4,42.8c0,0,0.6-0.4,0.6-0.4c0.4-0.8,2.9-6.7,4.1-9.7c0.3-0.7,0.6-1.5,1.4-1.8c0.3-0.1,0.5-0.5,0.6-0.8
		c2.1-4.9,4.1-9.8,6.2-14.8c0.2-0.5,0.3-0.8,0.1-1.1c-0.1-0.3-0.4-0.5-0.9-0.8C59.6,23.2,55.5,33,51.4,42.8"/>
	<g>
		<g>
			<defs>
				<rect id="SVGID_123_" x="32.6" y="13.4" width="12.6" height="29.4"/>
			</defs>
			<clipPath id="SVGID_60_">
				<use xlink:href="#SVGID_123_"  style="overflow:visible;"/>
			</clipPath>
			<g style="clip-path:url(#SVGID_60_);">
				
					<image style="overflow:visible;" width="28" height="62" xlink:href="439C6DD4.jpg"  transform="matrix(0.48 0 0 0.48 32.16 13.12)">
				</image>
			</g>
		</g>
	</g>
	<path class="st1" d="M32.6,13.6c4.2,9.8,8.3,19.5,12.4,29.3c0,0,0.1-0.7,0.1-0.8c-0.3-0.8-2.8-6.7-4.1-9.7
		c-0.3-0.7-0.7-1.4-0.3-2.3c0.1-0.3,0-0.7-0.1-1c-2.1-4.9-4.2-9.8-6.3-14.7c-0.2-0.5-0.4-0.7-0.7-0.8c-0.1,0-0.2,0-0.3,0
		C33.3,13.4,33,13.5,32.6,13.6"/>
	<g>
		<g>
			<defs>
				<rect id="SVGID_125_" x="25.8" y="17.2" width="18" height="26.6"/>
			</defs>
			<clipPath id="SVGID_62_">
				<use xlink:href="#SVGID_125_"  style="overflow:visible;"/>
			</clipPath>
			<g style="clip-path:url(#SVGID_62_);">
				
					<image style="overflow:visible;" width="39" height="56" xlink:href="439C6DEC.jpg"  transform="matrix(0.48 0 0 0.48 25.44 16.96)">
				</image>
			</g>
		</g>
	</g>
	<path class="st1" d="M25.8,17.5c6,8.7,12,17.5,18,26.2c0,0,0-0.7,0-0.8c-0.5-0.7-4-6-5.9-8.7c-0.5-0.7-0.9-1.3-0.7-2.2
		c0.1-0.3-0.2-0.7-0.3-1c-3-4.4-6-8.8-9-13.2c-0.3-0.4-0.5-0.6-0.8-0.7c0,0-0.1,0-0.1,0C26.5,17.2,26.2,17.3,25.8,17.5"/>
	<g>
		<g>
			<defs>
				<rect id="SVGID_127_" x="20" y="21.8" width="22.5" height="23"/>
			</defs>
			<clipPath id="SVGID_64_">
				<use xlink:href="#SVGID_127_"  style="overflow:visible;"/>
			</clipPath>
			<g style="clip-path:url(#SVGID_64_);">
				
					<image style="overflow:visible;" width="48" height="49" xlink:href="439C6DEF.jpg"  transform="matrix(0.48 0 0 0.48 19.68 21.28)">
				</image>
			</g>
		</g>
	</g>
	<path class="st1" d="M21.1,21.8c-0.3,0-0.6,0.2-1,0.5c7.5,7.5,15,15,22.5,22.5c0,0-0.1-0.7-0.2-0.7c-0.6-0.6-5.1-5.2-7.4-7.5
		c-0.6-0.6-1.1-1.1-1.1-2c0-0.3-0.3-0.7-0.5-0.9C29.6,29.8,25.8,26,22,22.3C21.6,21.9,21.4,21.8,21.1,21.8
		C21.1,21.8,21.1,21.8,21.1,21.8"/>
</g>
</svg>
