<?xml version="1.0" encoding="utf-8"?>
<!-- Generator: Adobe Illustrator 24.1.2, SVG Export Plug-In . SVG Version: 6.00 Build 0)  -->
<svg version="1.1" id="Layer_1" xmlns="http://www.w3.org/2000/svg" xmlns:xlink="http://www.w3.org/1999/xlink" x="0px" y="0px"
	 viewBox="0 0 200 100" style="enable-background:new 0 0 200 100;" xml:space="preserve">
<style type="text/css">
	.st0{fill:#FFFFFF;}
	.st1{fill:none;}
</style>
<path class="st0" d="M97.5,64.7c-0.6-0.4-0.8-1-0.8-1.7v-0.4c0-0.1,0-0.1,0.1-0.1h0.6c0.1,0,0.1,0,0.1,0.1V63c0,0.5,0.2,0.9,0.6,1.2
	c0.4,0.3,1,0.5,1.7,0.5c0.7,0,1.1-0.1,1.5-0.4c0.3-0.3,0.5-0.6,0.5-1.1c0-0.3-0.1-0.6-0.2-0.8c-0.2-0.2-0.4-0.4-0.7-0.6
	c-0.3-0.2-0.8-0.4-1.4-0.6c-0.6-0.3-1.1-0.5-1.5-0.7c-0.4-0.2-0.6-0.4-0.9-0.7c-0.2-0.3-0.3-0.7-0.3-1.1c0-0.7,0.2-1.3,0.7-1.7
	c0.5-0.4,1.2-0.6,2-0.6c0.9,0,1.7,0.2,2.2,0.7c0.5,0.4,0.8,1,0.8,1.8V59c0,0.1,0,0.1-0.1,0.1h-0.6c-0.1,0-0.1,0-0.1-0.1v-0.2
	c0-0.5-0.2-0.9-0.6-1.2c-0.4-0.3-0.9-0.5-1.6-0.5c-0.6,0-1.1,0.1-1.4,0.4c-0.3,0.2-0.5,0.6-0.5,1.1c0,0.3,0.1,0.6,0.2,0.8
	c0.2,0.2,0.4,0.4,0.7,0.5c0.3,0.1,0.7,0.3,1.4,0.6c0.6,0.3,1.1,0.5,1.5,0.7c0.4,0.2,0.7,0.5,0.9,0.8c0.2,0.3,0.4,0.7,0.4,1.2
	c0,0.7-0.3,1.3-0.8,1.7c-0.5,0.4-1.3,0.6-2.2,0.6C98.8,65.4,98,65.2,97.5,64.7"/>
<path class="st0" d="M116.6,57.2h-4.7c0,0-0.1,0-0.1,0.1v3.1c0,0,0,0.1,0.1,0.1h3.3c0.1,0,0.1,0,0.1,0.1v0.5c0,0.1,0,0.1-0.1,0.1
	h-3.3c0,0-0.1,0-0.1,0.1v3.2c0,0,0,0.1,0.1,0.1h4.7c0.1,0,0.1,0,0.1,0.1v0.5c0,0.1,0,0.1-0.1,0.1h-5.5c-0.1,0-0.1,0-0.1-0.1v-8.7
	c0-0.1,0-0.1,0.1-0.1h5.5c0.1,0,0.1,0,0.1,0.1v0.5C116.7,57.1,116.7,57.2,116.6,57.2"/>
<path class="st0" d="M130.1,65.2l-1.9-3.9c0,0,0,0-0.1,0H126c0,0-0.1,0-0.1,0.1v3.9c0,0.1,0,0.1-0.1,0.1h-0.6c-0.1,0-0.1,0-0.1-0.1
	v-8.7c0-0.1,0-0.1,0.1-0.1h3.3c0.7,0,1.3,0.2,1.8,0.7c0.4,0.5,0.7,1,0.7,1.8c0,0.6-0.2,1.1-0.5,1.5c-0.3,0.4-0.8,0.7-1.3,0.8
	c0,0,0,0,0,0.1l1.9,3.9c0,0,0,0,0,0.1c0,0.1,0,0.1-0.1,0.1h-0.7C130.1,65.3,130.1,65.3,130.1,65.2 M125.9,57.2v3.2
	c0,0,0,0.1,0.1,0.1h2.4c0.5,0,0.9-0.2,1.2-0.5c0.3-0.3,0.5-0.7,0.5-1.2c0-0.5-0.2-0.9-0.5-1.2c-0.3-0.3-0.7-0.5-1.2-0.5L125.9,57.2
	C125.9,57.2,125.9,57.2,125.9,57.2"/>
<path class="st0" d="M141.1,65.2l-2.8-8.7l0-0.1c0-0.1,0-0.1,0.1-0.1h0.7c0.1,0,0.1,0,0.2,0.1l2.3,7.5c0,0,0,0,0,0c0,0,0,0,0,0
	l2.3-7.5c0-0.1,0.1-0.1,0.2-0.1h0.7c0.1,0,0.1,0,0.1,0.1l-2.8,8.7c0,0.1-0.1,0.1-0.2,0.1h-0.7C141.2,65.3,141.1,65.3,141.1,65.2"/>
<path class="st0" d="M152.9,65.2v-8.7c0-0.1,0-0.1,0.1-0.1h0.6c0.1,0,0.1,0,0.1,0.1v8.7c0,0.1,0,0.1-0.1,0.1H153
	C152.9,65.3,152.9,65.3,152.9,65.2"/>
<path class="st0" d="M163.7,65.1c-0.4-0.2-0.8-0.6-1-1c-0.2-0.4-0.4-0.9-0.4-1.5v-3.5c0-0.6,0.1-1,0.4-1.5c0.3-0.4,0.6-0.8,1-1
	c0.4-0.2,1-0.3,1.6-0.3s1.1,0.1,1.6,0.3c0.4,0.2,0.8,0.6,1,1c0.2,0.4,0.4,0.9,0.4,1.4c0,0,0,0.1,0,0.1c0,0-0.1,0-0.1,0l-0.6,0
	c-0.1,0-0.1,0-0.1-0.1v0c0-0.6-0.2-1.1-0.6-1.4c-0.4-0.4-0.9-0.5-1.5-0.5c-0.6,0-1.1,0.2-1.5,0.5c-0.4,0.4-0.6,0.8-0.6,1.4v3.6
	c0,0.6,0.2,1.1,0.6,1.4c0.4,0.4,0.9,0.5,1.5,0.5c0.6,0,1.1-0.2,1.5-0.5c0.4-0.4,0.6-0.8,0.6-1.4v0c0-0.1,0-0.1,0.1-0.1l0.6,0
	c0.1,0,0.1,0,0.1,0.1c0,0.6-0.1,1-0.4,1.5c-0.3,0.4-0.6,0.7-1,1c-0.4,0.2-1,0.3-1.6,0.3S164.1,65.3,163.7,65.1"/>
<path class="st0" d="M182.3,57.2h-4.7c0,0-0.1,0-0.1,0.1v3.1c0,0,0,0.1,0.1,0.1h3.3c0.1,0,0.1,0,0.1,0.1v0.5c0,0.1,0,0.1-0.1,0.1
	h-3.3c0,0-0.1,0-0.1,0.1v3.2c0,0,0,0.1,0.1,0.1h4.7c0.1,0,0.1,0,0.1,0.1v0.5c0,0.1,0,0.1-0.1,0.1h-5.5c-0.1,0-0.1,0-0.1-0.1v-8.7
	c0-0.1,0-0.1,0.1-0.1h5.5c0.1,0,0.1,0,0.1,0.1v0.5C182.4,57.1,182.4,57.2,182.3,57.2"/>
<path class="st0" d="M191,64.7c-0.6-0.4-0.8-1-0.8-1.7v-0.4c0-0.1,0-0.1,0.1-0.1h0.6c0.1,0,0.1,0,0.1,0.1V63c0,0.5,0.2,0.9,0.6,1.2
	c0.4,0.3,1,0.5,1.7,0.5c0.7,0,1.1-0.1,1.5-0.4c0.3-0.3,0.5-0.6,0.5-1.1c0-0.3-0.1-0.6-0.2-0.8c-0.2-0.2-0.4-0.4-0.7-0.6
	c-0.3-0.2-0.8-0.4-1.4-0.6c-0.6-0.3-1.1-0.5-1.5-0.7c-0.4-0.2-0.6-0.4-0.9-0.7c-0.2-0.3-0.3-0.7-0.3-1.1c0-0.7,0.2-1.3,0.7-1.7
	c0.5-0.4,1.2-0.6,2-0.6c0.9,0,1.7,0.2,2.2,0.7c0.5,0.4,0.8,1,0.8,1.8V59c0,0.1,0,0.1-0.1,0.1h-0.6c-0.1,0-0.1,0-0.1-0.1v-0.2
	c0-0.5-0.2-0.9-0.6-1.2c-0.4-0.3-0.9-0.5-1.6-0.5c-0.6,0-1.1,0.1-1.4,0.4c-0.3,0.2-0.5,0.6-0.5,1.1c0,0.3,0.1,0.6,0.2,0.8
	c0.2,0.2,0.4,0.4,0.7,0.5c0.3,0.1,0.7,0.3,1.4,0.6c0.6,0.3,1.1,0.5,1.5,0.7c0.4,0.2,0.7,0.5,0.9,0.8c0.2,0.3,0.3,0.7,0.3,1.2
	c0,0.7-0.3,1.3-0.8,1.7c-0.5,0.4-1.3,0.6-2.2,0.6C192.3,65.4,191.5,65.2,191,64.7"/>
<path class="st0" d="M103.4,34.9c1.1,0,2,0.2,2.8,0.6c0.8,0.4,1.5,0.9,2.1,1.7c0.6,0.7,1,1.5,1.3,2.5c0.3,0.9,0.4,1.9,0.4,3
	c0,1.4-0.3,2.7-0.8,3.9c-0.5,1.2-1.3,2.1-2.2,2.8c-1,0.7-2.2,1-3.6,1h-5.2c-0.4,0-0.7-0.1-1-0.4c-0.3-0.3-0.4-0.6-0.4-1V36.2
	c0-0.4,0.1-0.7,0.4-1c0.3-0.3,0.6-0.4,1-0.4H103.4z M103.2,47.7c0.9,0,1.7-0.2,2.3-0.7c0.6-0.5,1-1.1,1.3-1.9
	c0.3-0.8,0.4-1.6,0.4-2.6c0-0.7-0.1-1.3-0.2-2c-0.2-0.6-0.4-1.2-0.7-1.6c-0.3-0.5-0.7-0.9-1.2-1.1c-0.5-0.3-1.1-0.4-1.8-0.4h-3.8
	l0.2-0.2v10.7l-0.1-0.2H103.2z"/>
<path class="st0" d="M125.1,48.9c-0.1-0.4-0.3-0.6-0.6-0.8c-0.2-0.1-0.3-0.2-0.4-0.4c-0.1-0.2-0.1-0.4-0.1-0.7c0-0.3-0.1-0.6-0.1-1
	c0-0.4-0.1-0.8-0.3-1.1c-0.2-0.3-0.4-0.7-0.6-1c-0.2-0.2-0.4-0.4-0.6-0.5c0.3-0.2,0.6-0.4,0.9-0.7c0.4-0.4,0.7-0.9,0.9-1.4
	c0.2-0.5,0.3-1.1,0.3-1.6c0-0.9-0.2-1.7-0.6-2.4c-0.4-0.7-0.9-1.3-1.6-1.7c-0.7-0.4-1.4-0.6-2.1-0.6h-6.3c-0.4,0-0.7,0.1-1,0.4
	c-0.3,0.3-0.4,0.6-0.4,1v12.7c0,0.4,0.2,0.7,0.5,1c0.3,0.3,0.7,0.4,1.1,0.4c0.4,0,0.7-0.1,0.9-0.4c0.2-0.3,0.3-0.6,0.3-1v-4.3h4.1
	c0.3,0,0.6,0,0.9,0.1c0.2,0.1,0.5,0.2,0.6,0.4c0.2,0.2,0.3,0.3,0.4,0.5c0.1,0.2,0.1,0.4,0.1,0.7c0,0.8,0.1,1.4,0.2,1.9
	c0.2,0.5,0.4,0.9,0.6,1.2c0.2,0.3,0.5,0.5,0.7,0.6c0.2,0.1,0.4,0.2,0.6,0.2c0.2,0.1,0.5,0.1,0.7,0c0.2-0.1,0.5-0.2,0.6-0.4
	C125.1,49.5,125.2,49.2,125.1,48.9 M121.4,41c-0.2,0.4-0.4,0.7-0.6,1c-0.2,0.2-0.5,0.4-0.8,0.4h-4.8v-5h4.8c0.4,0,0.8,0.2,1.1,0.6
	c0.3,0.4,0.5,1,0.5,1.6C121.6,40.1,121.6,40.6,121.4,41"/>
<path class="st0" d="M141.4,42.5c0,1.1-0.2,2.1-0.5,3.1c-0.4,1-0.9,1.8-1.5,2.5c-0.7,0.7-1.5,1.3-2.4,1.7c-0.9,0.4-1.9,0.6-3,0.6
	c-1.1,0-2.1-0.2-3-0.6c-0.9-0.4-1.7-1-2.4-1.7c-0.7-0.7-1.2-1.6-1.5-2.5c-0.4-1-0.5-2-0.5-3.1c0-1.1,0.2-2.1,0.5-3.1
	c0.4-1,0.9-1.8,1.5-2.5c0.7-0.7,1.4-1.3,2.4-1.7c0.9-0.4,1.9-0.6,3-0.6c1.1,0,2.1,0.2,3,0.6c0.9,0.4,1.7,1,2.4,1.7
	c0.7,0.7,1.2,1.6,1.5,2.5C141.3,40.4,141.4,41.4,141.4,42.5 M138.6,42.5c0-1-0.2-1.9-0.6-2.7c-0.4-0.8-0.9-1.4-1.6-1.9
	c-0.7-0.5-1.5-0.7-2.4-0.7c-0.9,0-1.7,0.2-2.4,0.7c-0.7,0.5-1.2,1.1-1.6,1.9c-0.4,0.8-0.6,1.7-0.6,2.7c0,1,0.2,1.9,0.6,2.7
	c0.4,0.8,0.9,1.4,1.6,1.9c0.7,0.5,1.5,0.7,2.4,0.7c0.9,0,1.7-0.2,2.4-0.7c0.7-0.5,1.2-1.1,1.6-1.9C138.4,44.4,138.6,43.5,138.6,42.5
	"/>
<path class="st0" d="M156.5,35.2c-0.2-0.2-0.5-0.4-0.9-0.4c-0.4,0-0.7,0.1-0.9,0.4c-0.2,0.2-0.3,0.5-0.3,0.9v9.4l-8-10.2
	c-0.1-0.2-0.3-0.3-0.5-0.4c-0.2-0.1-0.4-0.1-0.6-0.1c-0.4,0-0.7,0.1-1,0.4c-0.3,0.3-0.4,0.6-0.4,1V49c0,0.4,0.1,0.6,0.3,0.9
	c0.2,0.2,0.5,0.4,0.9,0.4c0.4,0,0.7-0.1,0.9-0.4c0.2-0.2,0.3-0.5,0.3-0.9v-9.4l8,10.2c0.1,0.1,0.3,0.2,0.4,0.3
	c0.2,0.1,0.4,0.1,0.6,0.1c0.4,0,0.7-0.1,1-0.4c0.3-0.3,0.4-0.6,0.4-1V36.1C156.8,35.7,156.7,35.4,156.5,35.2"/>
<path class="st0" d="M161.4,34.9h7.3c0.4,0,0.7,0.1,1,0.4c0.3,0.2,0.4,0.6,0.4,0.9c0,0.4-0.1,0.7-0.4,0.9c-0.3,0.2-0.6,0.3-1,0.3
	h-6.1l0.2-0.4v4.3l-0.2-0.2h5.1c0.4,0,0.7,0.1,1,0.4c0.3,0.2,0.4,0.6,0.4,0.9c0,0.4-0.1,0.7-0.4,0.9c-0.3,0.2-0.6,0.3-1,0.3h-5.1
	l0.1-0.2v4.4l-0.2-0.2h6.1c0.4,0,0.7,0.1,1,0.4c0.3,0.3,0.4,0.6,0.4,0.9c0,0.4-0.1,0.7-0.4,0.9c-0.3,0.2-0.6,0.4-1,0.4h-7.3
	c-0.4,0-0.7-0.1-1-0.4c-0.3-0.3-0.4-0.6-0.4-1V36.2c0-0.4,0.1-0.7,0.4-1C160.7,35,161,34.9,161.4,34.9"/>
<path class="st0" d="M190.8,48.5l-5.4-12.8c-0.1-0.3-0.3-0.5-0.5-0.6c-0.2-0.2-0.5-0.2-0.7-0.2c-0.3,0-0.5,0-0.8,0.2
	c-0.2,0.2-0.4,0.4-0.5,0.7l-5.5,13.1c0,0.1-0.1,0.3-0.1,0.4c0,0.3,0.1,0.6,0.3,0.8c0.2,0.2,0.5,0.3,0.9,0.3c0.2,0,0.5-0.1,0.7-0.2
	c0.2-0.2,0.4-0.4,0.5-0.6l1.1-2.7h6.5l1.1,2.7c0.1,0.3,0.3,0.5,0.5,0.7c0.2,0.2,0.4,0.2,0.7,0.2c0.3,0,0.6-0.1,0.8-0.4
	c0.3-0.2,0.4-0.5,0.4-0.9C190.9,48.9,190.9,48.7,190.8,48.5 M181.9,44.2l2.2-5.1l2.2,5.1H181.9z"/>
<path class="st0" d="M194.2,38.5c-0.4,0-0.7,0.1-0.9,0.4c-0.2,0.3-0.4,0.6-0.4,1v9.1c0,0.4,0.1,0.7,0.4,1c0.2,0.3,0.6,0.4,0.9,0.4
	c0.4,0,0.7-0.1,0.9-0.4c0.2-0.3,0.4-0.6,0.4-1v-9.1c0-0.4-0.1-0.7-0.4-1C194.9,38.6,194.6,38.5,194.2,38.5"/>
<path class="st0" d="M195.6,36c0,0.8-0.6,1.4-1.4,1.4c-0.8,0-1.4-0.6-1.4-1.4c0-0.8,0.6-1.4,1.4-1.4C195,34.6,195.6,35.2,195.6,36"
	/>
<g>
	<g>
		<g>
			<defs>
				<rect id="SVGID_1_" x="44.8" y="58" width="6.4" height="31.3"/>
			</defs>
			<clipPath id="SVGID_2_">
				<use xlink:href="#SVGID_1_"  style="overflow:visible;"/>
			</clipPath>
			<g style="clip-path:url(#SVGID_2_);">
				
					<image style="overflow:visible;" width="14" height="66" xlink:href="9192E401.jpg"  transform="matrix(0.48 0 0 0.48 44.64 57.76)">
				</image>
			</g>
		</g>
	</g>
	<path class="st1" d="M44.8,58.7c0.2,0.9,1.3,7.1,2,10.4c0.2,0.8,0.3,1.5-0.2,2.3c-0.2,0.2-0.1,0.7-0.1,1c1,5.2,2,10.5,3.1,15.7
		c0.1,0.5,0.2,0.8,0.5,1c0.2,0.1,0.6,0.2,1.2,0.1c-2.1-10.4-4.1-20.8-6.2-31.2C45,58,44.8,58.7,44.8,58.7"/>
	<g>
		<g>
			<defs>
				<rect id="SVGID_3_" x="35.3" y="10.8" width="6.5" height="31.2"/>
			</defs>
			<clipPath id="SVGID_4_">
				<use xlink:href="#SVGID_3_"  style="overflow:visible;"/>
			</clipPath>
			<g style="clip-path:url(#SVGID_4_);">
				
					<image style="overflow:visible;" width="15" height="66" xlink:href="9192E400.jpg"  transform="matrix(0.48 0 0 0.48 35.04 10.72)">
				</image>
			</g>
		</g>
	</g>
	<path class="st1" d="M35.3,10.8c2.1,10.4,4.2,20.8,6.2,31.2c0,0,0.3-0.7,0.3-0.7c-0.2-0.9-1.3-7.1-2-10.4c-0.2-0.8-0.3-1.5,0.2-2.3
		c0.2-0.2,0.1-0.7,0.1-1c-1-5.2-2.1-10.5-3.1-15.7c-0.1-0.5-0.2-0.8-0.5-0.9c-0.2-0.1-0.4-0.1-0.7-0.1
		C35.7,10.8,35.5,10.8,35.3,10.8"/>
	<g>
		<g>
			<defs>
				<rect id="SVGID_5_" x="41.9" y="58.2" width="1.6" height="31.8"/>
			</defs>
			<clipPath id="SVGID_6_">
				<use xlink:href="#SVGID_5_"  style="overflow:visible;"/>
			</clipPath>
			<g style="clip-path:url(#SVGID_6_);">
				
					<image style="overflow:visible;" width="4" height="68" xlink:href="9192E40E.jpg"  transform="matrix(0.48 0 0 0.48 41.76 57.76)">
				</image>
			</g>
		</g>
	</g>
	<path class="st1" d="M43.1,58.8c0,0.9-0.1,7.2-0.1,10.6c0,0.8,0,1.6-0.7,2.2c-0.2,0.2-0.3,0.7-0.3,1c0,5.3-0.1,10.7-0.1,16
		c0,0.5,0.1,0.8,0.3,1c0.2,0.2,0.6,0.3,1.1,0.4c0.1-10.6,0.1-21.2,0.2-31.8c0,0,0,0,0,0C43.4,58.2,43.1,58.8,43.1,58.8"/>
	<g>
		<g>
			<defs>
				<rect id="SVGID_7_" x="43.2" y="10" width="1.6" height="31.8"/>
			</defs>
			<clipPath id="SVGID_8_">
				<use xlink:href="#SVGID_7_"  style="overflow:visible;"/>
			</clipPath>
			<g style="clip-path:url(#SVGID_8_);">
				
					<image style="overflow:visible;" width="5" height="67" xlink:href="9192E418.jpg"  transform="matrix(0.48 0 0 0.48 42.72 9.76)">
				</image>
			</g>
		</g>
	</g>
	<path class="st1" d="M43.2,41.8c0,0,0.4-0.6,0.4-0.6c0-0.9,0.1-7.2,0.1-10.5c0-0.8,0-1.6,0.6-2.2c0.2-0.2,0.3-0.7,0.3-1
		c0.1-5.3,0.1-10.7,0.1-16c0-0.5-0.1-0.8-0.3-1c-0.2-0.2-0.6-0.3-1.1-0.3C43.3,20.6,43.2,31.2,43.2,41.8"/>
	<g>
		<g>
			<defs>
				<rect id="SVGID_9_" x="34.6" y="58.1" width="7.3" height="31.2"/>
			</defs>
			<clipPath id="SVGID_10_">
				<use xlink:href="#SVGID_9_"  style="overflow:visible;"/>
			</clipPath>
			<g style="clip-path:url(#SVGID_10_);">
				
					<image style="overflow:visible;" width="17" height="66" xlink:href="9192E419.jpg"  transform="matrix(0.48 0 0 0.48 34.08 57.76)">
				</image>
			</g>
		</g>
	</g>
	<path class="st1" d="M41.3,58.6c-0.2,0.9-1.5,7.1-2.1,10.3c-0.2,0.8-0.3,1.6-1.1,2.1c-0.3,0.2-0.4,0.6-0.5,0.9
		c-1,5.2-2.1,10.5-3.1,15.7c-0.1,0.5-0.1,0.8,0.1,1.1c0.2,0.2,0.5,0.4,1,0.6c2-10.4,4.1-20.8,6.1-31.2c0,0,0,0,0,0
		C41.8,58.1,41.3,58.6,41.3,58.6"/>
	<g>
		<g>
			<defs>
				<rect id="SVGID_11_" x="44.8" y="10.7" width="7.4" height="31.2"/>
			</defs>
			<clipPath id="SVGID_12_">
				<use xlink:href="#SVGID_11_"  style="overflow:visible;"/>
			</clipPath>
			<g style="clip-path:url(#SVGID_12_);">
				
					<image style="overflow:visible;" width="16" height="66" xlink:href="9192E41A.jpg"  transform="matrix(0.48 0 0 0.48 44.64 10.24)">
				</image>
			</g>
		</g>
	</g>
	<path class="st1" d="M44.8,41.9c0,0,0.5-0.5,0.5-0.6c0.2-0.9,1.5-7.1,2.1-10.3c0.2-0.8,0.3-1.6,1.1-2.1c0.3-0.2,0.4-0.6,0.5-0.9
		c1.1-5.2,2.1-10.5,3.1-15.7c0.1-0.5,0.1-0.8-0.1-1.1c-0.2-0.2-0.5-0.4-1-0.6C48.9,21.1,46.8,31.5,44.8,41.9"/>
	<g>
		<g>
			<defs>
				<rect id="SVGID_13_" x="46.5" y="57.5" width="12.4" height="29.5"/>
			</defs>
			<clipPath id="SVGID_14_">
				<use xlink:href="#SVGID_13_"  style="overflow:visible;"/>
			</clipPath>
			<g style="clip-path:url(#SVGID_14_);">
				
					<image style="overflow:visible;" width="27" height="62" xlink:href="9192E41B.jpg"  transform="matrix(0.48 0 0 0.48 46.08 57.28)">
				</image>
			</g>
		</g>
	</g>
	<path class="st1" d="M46.5,58.2c0.3,0.8,2.7,6.7,4,9.8c0.3,0.7,0.6,1.4,0.3,2.3c-0.1,0.3,0,0.7,0.1,1c2,4.9,4.1,9.9,6.2,14.8
		c0.2,0.5,0.4,0.7,0.7,0.8c0.3,0.1,0.6,0,1.2-0.1c-4.1-9.8-8.2-19.6-12.3-29.4C46.6,57.5,46.5,58.2,46.5,58.2"/>
	<g>
		<g>
			<defs>
				<rect id="SVGID_15_" x="48" y="56.6" width="18" height="26.6"/>
			</defs>
			<clipPath id="SVGID_16_">
				<use xlink:href="#SVGID_15_"  style="overflow:visible;"/>
			</clipPath>
			<g style="clip-path:url(#SVGID_16_);">
				
					<image style="overflow:visible;" width="38" height="57" xlink:href="9192E41C.jpg"  transform="matrix(0.48 0 0 0.48 48 56.32)">
				</image>
			</g>
		</g>
	</g>
	<path class="st1" d="M48.1,57.4c0.5,0.7,4,6,5.9,8.8c0.5,0.7,0.9,1.3,0.7,2.2c-0.1,0.3,0.2,0.7,0.3,1c3,4.4,6,8.8,9.1,13.2
		c0.3,0.4,0.5,0.6,0.8,0.7c0.3,0,0.6-0.1,1.1-0.3c-6-8.8-12-17.5-18-26.2C48,56.6,48.1,57.4,48.1,57.4"/>
	<g>
		<g>
			<defs>
				<rect id="SVGID_17_" x="49.2" y="55.7" width="22.5" height="23.1"/>
			</defs>
			<clipPath id="SVGID_18_">
				<use xlink:href="#SVGID_17_"  style="overflow:visible;"/>
			</clipPath>
			<g style="clip-path:url(#SVGID_18_);">
				
					<image style="overflow:visible;" width="48" height="49" xlink:href="9192E41D.jpg"  transform="matrix(0.48 0 0 0.48 48.96 55.36)">
				</image>
			</g>
		</g>
	</g>
	<path class="st1" d="M49.4,56.4c0.6,0.6,5.1,5.2,7.4,7.5c0.6,0.6,1.1,1.1,1.1,2c0,0.3,0.3,0.7,0.5,0.9c3.8,3.8,7.5,7.6,11.3,11.3
		c0.4,0.4,0.6,0.5,0.9,0.5c0.3,0,0.6-0.2,1-0.5c-7.5-7.5-15-15-22.5-22.5C49.2,55.7,49.4,56.4,49.4,56.4"/>
	<g>
		<g>
			<defs>
				<rect id="SVGID_19_" x="50.2" y="54.4" width="26.6" height="18.4"/>
			</defs>
			<clipPath id="SVGID_20_">
				<use xlink:href="#SVGID_19_"  style="overflow:visible;"/>
			</clipPath>
			<g style="clip-path:url(#SVGID_20_);">
				
					<image style="overflow:visible;" width="56" height="40" xlink:href="A3AF4F9.jpg"  transform="matrix(0.48 0 0 0.48 49.92 53.92)">
				</image>
			</g>
		</g>
	</g>
	<path class="st1" d="M50.6,55.1c0.7,0.5,6,4.1,8.8,5.9c0.7,0.4,1.3,0.8,1.5,1.8c0.1,0.3,0.4,0.6,0.7,0.8c4.4,3,8.9,5.9,13.4,8.8
		c0.4,0.3,0.7,0.4,1,0.3c0.3-0.1,0.5-0.3,0.9-0.7c-8.9-5.9-17.7-11.7-26.5-17.6C50.2,54.4,50.5,55,50.6,55.1"/>
	<g>
		<g>
			<defs>
				<rect id="SVGID_21_" x="50.9" y="52.9" width="29.5" height="13.1"/>
			</defs>
			<clipPath id="SVGID_22_">
				<use xlink:href="#SVGID_21_"  style="overflow:visible;"/>
			</clipPath>
			<g style="clip-path:url(#SVGID_22_);">
				
					<image style="overflow:visible;" width="62" height="29" xlink:href="A3AF4FA.jpg"  transform="matrix(0.48 0 0 0.48 50.88 52.48)">
				</image>
			</g>
		</g>
	</g>
	<path class="st1" d="M51.4,53.6c0.8,0.4,6.7,2.8,9.7,4.1c0.7,0.3,1.5,0.6,1.8,1.4c0.1,0.3,0.5,0.5,0.8,0.6c4.9,2,9.9,4.1,14.8,6.1
		c0.5,0.2,0.8,0.3,1.1,0.1c0.2-0.1,0.5-0.4,0.7-0.9c-9.8-4-19.6-8-29.5-12C50.9,53,51.3,53.5,51.4,53.6"/>
	<g>
		<g>
			<defs>
				<rect id="SVGID_23_" x="51.4" y="51.3" width="31.3" height="7.2"/>
			</defs>
			<clipPath id="SVGID_24_">
				<use xlink:href="#SVGID_23_"  style="overflow:visible;"/>
			</clipPath>
			<g style="clip-path:url(#SVGID_24_);">
				
					<image style="overflow:visible;" width="66" height="16" xlink:href="A3AF4FB.jpg"  transform="matrix(0.48 0 0 0.48 51.36 51.04)">
				</image>
			</g>
		</g>
	</g>
	<path class="st1" d="M51.9,51.8c0.9,0.2,7.1,1.4,10.4,2.1c0.8,0.1,1.6,0.3,2.1,1c0.2,0.3,0.6,0.4,0.9,0.5c5.2,1,10.5,2,15.7,3
		c0.5,0.1,0.8,0.1,1.1-0.1c0.2-0.2,0.4-0.5,0.6-1c-10.4-2-20.8-4-31.3-5.9C51.4,51.4,51.9,51.8,51.9,51.8"/>
	<g>
		<g>
			<defs>
				<rect id="SVGID_25_" x="51.5" y="49.8" width="31.8" height="1.4"/>
			</defs>
			<clipPath id="SVGID_26_">
				<use xlink:href="#SVGID_25_"  style="overflow:visible;"/>
			</clipPath>
			<g style="clip-path:url(#SVGID_26_);">
				
					<image style="overflow:visible;" width="67" height="4" xlink:href="A3AF4FC.jpg"  transform="matrix(0.48 0 0 0.48 51.36 49.6)">
				</image>
			</g>
		</g>
	</g>
	<path class="st1" d="M52.1,50.2c0.9,0,7.2,0.1,10.6,0.1c0.8,0,1.6,0,2.2,0.6c0.2,0.2,0.7,0.3,1,0.3c5.3,0,10.7,0,16,0
		c0.5,0,0.8-0.1,1-0.3c0.2-0.2,0.3-0.6,0.4-1.1c-10.6,0-21.2,0-31.8,0C51.5,49.8,52.1,50.2,52.1,50.2"/>
	<g>
		<g>
			<defs>
				<rect id="SVGID_27_" x="51.3" y="41.9" width="31.2" height="6.6"/>
			</defs>
			<clipPath id="SVGID_28_">
				<use xlink:href="#SVGID_27_"  style="overflow:visible;"/>
			</clipPath>
			<g style="clip-path:url(#SVGID_28_);">
				
					<image style="overflow:visible;" width="66" height="15" xlink:href="A3AF4F8.jpg"  transform="matrix(0.48 0 0 0.48 50.88 41.44)">
				</image>
			</g>
		</g>
	</g>
	<path class="st1" d="M51.3,48.2c0,0,0.7,0.3,0.7,0.3c0.9-0.2,7.1-1.4,10.4-2c0.8-0.2,1.5-0.4,2.3,0.2c0.2,0.2,0.7,0.1,1,0.1
		c5.2-1.1,10.5-2.1,15.7-3.2c0.5-0.1,0.8-0.2,0.9-0.5c0.1-0.2,0.2-0.6,0.1-1.2C72.1,44,61.7,46.1,51.3,48.2"/>
	<g>
		<g>
			<defs>
				<rect id="SVGID_29_" x="50.8" y="34.6" width="29.6" height="12.3"/>
			</defs>
			<clipPath id="SVGID_30_">
				<use xlink:href="#SVGID_29_"  style="overflow:visible;"/>
			</clipPath>
			<g style="clip-path:url(#SVGID_30_);">
				
					<image style="overflow:visible;" width="63" height="27" xlink:href="A3AF4F6.jpg"  transform="matrix(0.48 0 0 0.48 50.4 34.24)">
				</image>
			</g>
		</g>
	</g>
	<path class="st1" d="M50.8,46.7c0,0,0.7,0.2,0.7,0.1c0.8-0.3,6.7-2.7,9.8-3.9c0.7-0.3,1.5-0.6,2.3-0.3c0.3,0.1,0.7,0,1-0.1
		c4.9-2,9.9-4.1,14.8-6.1c0.5-0.2,0.7-0.4,0.8-0.7c0.1-0.3,0-0.6-0.1-1.2C70.4,38.6,60.6,42.7,50.8,46.7"/>
	<g>
		<g>
			<defs>
				<rect id="SVGID_31_" x="9.8" y="27.3" width="26.6" height="18.3"/>
			</defs>
			<clipPath id="SVGID_32_">
				<use xlink:href="#SVGID_31_"  style="overflow:visible;"/>
			</clipPath>
			<g style="clip-path:url(#SVGID_32_);">
				
					<image style="overflow:visible;" width="56" height="39" xlink:href="A3AF4F7.jpg"  transform="matrix(0.48 0 0 0.48 9.6 27.04)">
				</image>
			</g>
		</g>
	</g>
	<path class="st1" d="M10.8,27.4c-0.3,0.1-0.5,0.3-0.9,0.7c8.9,5.8,17.7,11.7,26.6,17.5c0,0-0.3-0.7-0.3-0.7c-0.7-0.5-6-4.1-8.8-5.9
		c-0.7-0.4-1.3-0.8-1.5-1.8c-0.1-0.3-0.4-0.6-0.7-0.8c-4.5-2.9-8.9-5.9-13.4-8.8c-0.3-0.2-0.6-0.3-0.8-0.3
		C10.9,27.3,10.8,27.3,10.8,27.4"/>
	<g>
		<g>
			<defs>
				<rect id="SVGID_33_" x="6.3" y="34.1" width="29.5" height="13"/>
			</defs>
			<clipPath id="SVGID_34_">
				<use xlink:href="#SVGID_33_"  style="overflow:visible;"/>
			</clipPath>
			<g style="clip-path:url(#SVGID_34_);">
				
					<image style="overflow:visible;" width="62" height="28" xlink:href="A3AF4E8.jpg"  transform="matrix(0.48 0 0 0.48 6.24 33.76)">
				</image>
			</g>
		</g>
	</g>
	<path class="st1" d="M7,34.2c-0.2,0.1-0.5,0.4-0.7,0.9c9.8,4,19.6,8,29.5,12c0,0-0.4-0.6-0.4-0.6c-0.8-0.4-6.7-2.8-9.7-4.1
		c-0.7-0.3-1.5-0.6-1.8-1.4c-0.1-0.3-0.5-0.5-0.8-0.6c-4.9-2-9.9-4-14.8-6c-0.3-0.1-0.5-0.2-0.7-0.2C7.2,34.1,7.1,34.1,7,34.2"/>
	<g>
		<g>
			<defs>
				<rect id="SVGID_35_" x="4" y="41.6" width="31.3" height="7.1"/>
			</defs>
			<clipPath id="SVGID_36_">
				<use xlink:href="#SVGID_35_"  style="overflow:visible;"/>
			</clipPath>
			<g style="clip-path:url(#SVGID_36_);">
				
					<image style="overflow:visible;" width="66" height="16" xlink:href="A3AF4E9.jpg"  transform="matrix(0.48 0 0 0.48 3.84 41.44)">
				</image>
			</g>
		</g>
	</g>
	<path class="st1" d="M4.6,41.7c-0.2,0.2-0.4,0.5-0.6,1c10.4,2,20.9,3.9,31.3,5.9c0,0-0.5-0.5-0.6-0.5c-0.9-0.2-7.1-1.4-10.4-2
		c-0.8-0.1-1.6-0.3-2.1-1c-0.2-0.3-0.6-0.4-0.9-0.5c-5.2-1-10.5-2-15.7-3c-0.2,0-0.4-0.1-0.5-0.1C4.9,41.6,4.7,41.6,4.6,41.7"/>
	<g>
		<g>
			<defs>
				<rect id="SVGID_37_" x="3.3" y="48.8" width="31.8" height="1.4"/>
			</defs>
			<clipPath id="SVGID_38_">
				<use xlink:href="#SVGID_37_"  style="overflow:visible;"/>
			</clipPath>
			<g style="clip-path:url(#SVGID_38_);">
				
					<image style="overflow:visible;" width="68" height="4" xlink:href="A3AF4EA.jpg"  transform="matrix(0.48 0 0 0.48 2.88 48.64)">
				</image>
			</g>
		</g>
	</g>
	<path class="st1" d="M4.7,48.8c-0.5,0-0.8,0.1-1,0.3c-0.2,0.2-0.3,0.6-0.4,1.1c10.6,0,21.2,0,31.8,0c0,0-0.6-0.4-0.6-0.4
		c-0.9,0-7.2-0.1-10.6-0.1c-0.8,0-1.6,0-2.2-0.6c-0.2-0.2-0.7-0.3-1-0.3c-2.3,0-4.6,0-6.9,0C10.8,48.8,7.8,48.8,4.7,48.8"/>
	<g>
		<g>
			<defs>
				<rect id="SVGID_39_" x="4.1" y="51.6" width="31.2" height="6.6"/>
			</defs>
			<clipPath id="SVGID_40_">
				<use xlink:href="#SVGID_39_"  style="overflow:visible;"/>
			</clipPath>
			<g style="clip-path:url(#SVGID_40_);">
				
					<image style="overflow:visible;" width="66" height="14" xlink:href="A3AF51B.jpg"  transform="matrix(0.48 0 0 0.48 3.84 51.52)">
				</image>
			</g>
		</g>
	</g>
	<path class="st1" d="M34.7,51.6c-0.9,0.2-7.1,1.3-10.4,2c-0.8,0.2-1.5,0.3-2.3-0.2c-0.2-0.2-0.7-0.1-1-0.1
		c-5.2,1-10.5,2.1-15.7,3.2c-0.5,0.1-0.8,0.2-1,0.5c-0.1,0.2-0.2,0.6-0.1,1.2C14.6,56.1,25,54,35.4,51.9
		C35.4,51.8,34.7,51.6,34.7,51.6C34.7,51.6,34.7,51.6,34.7,51.6"/>
	<g>
		<g>
			<defs>
				<rect id="SVGID_41_" x="6.2" y="53.2" width="29.6" height="12.2"/>
			</defs>
			<clipPath id="SVGID_42_">
				<use xlink:href="#SVGID_41_"  style="overflow:visible;"/>
			</clipPath>
			<g style="clip-path:url(#SVGID_42_);">
				
					<image style="overflow:visible;" width="63" height="26" xlink:href="A3AF518.jpg"  transform="matrix(0.48 0 0 0.48 5.76 52.96)">
				</image>
			</g>
		</g>
	</g>
	<path class="st1" d="M35.1,53.2c-0.8,0.3-6.7,2.7-9.8,3.9c-0.7,0.3-1.5,0.6-2.3,0.3c-0.3-0.1-0.7,0-1,0.1c-4.9,2-9.9,4-14.8,6.1
		c-0.5,0.2-0.7,0.4-0.8,0.7c-0.1,0.3,0,0.6,0.1,1.2c9.8-4,19.6-8.1,29.4-12.1C35.8,53.3,35.2,53.2,35.1,53.2
		C35.1,53.2,35.1,53.2,35.1,53.2"/>
	<g>
		<g>
			<defs>
				<rect id="SVGID_43_" x="9.9" y="54.7" width="26.8" height="17.8"/>
			</defs>
			<clipPath id="SVGID_44_">
				<use xlink:href="#SVGID_43_"  style="overflow:visible;"/>
			</clipPath>
			<g style="clip-path:url(#SVGID_44_);">
				
					<image style="overflow:visible;" width="57" height="38" xlink:href="A3AF507.jpg"  transform="matrix(0.48 0 0 0.48 9.6 54.4)">
				</image>
			</g>
		</g>
	</g>
	<path class="st1" d="M35.9,54.7c-0.7,0.5-6.1,4-8.8,5.8c-0.7,0.5-1.3,0.9-2.2,0.7c-0.3-0.1-0.7,0.1-1,0.3c-4.4,3-8.9,5.9-13.3,8.9
		c-0.4,0.3-0.7,0.5-0.7,0.8c0,0.3,0.1,0.6,0.3,1.1c8.8-5.9,17.6-11.9,26.4-17.8c0,0-0.1,0-0.2,0C36.2,54.7,35.9,54.7,35.9,54.7"/>
	<g>
		<g>
			<defs>
				<rect id="SVGID_45_" x="14.5" y="55.9" width="23.1" height="22.5"/>
			</defs>
			<clipPath id="SVGID_46_">
				<use xlink:href="#SVGID_45_"  style="overflow:visible;"/>
			</clipPath>
			<g style="clip-path:url(#SVGID_46_);">
				
					<image style="overflow:visible;" width="49" height="47" xlink:href="A3AF50D.jpg"  transform="matrix(0.48 0 0 0.48 14.4 55.84)">
				</image>
			</g>
		</g>
	</g>
	<path class="st1" d="M36.9,56c-0.6,0.6-5.2,5-7.5,7.4c-0.6,0.6-1.1,1.1-2,1.1c-0.3,0-0.7,0.3-0.9,0.5c-3.8,3.8-7.6,7.5-11.4,11.3
		c-0.4,0.4-0.5,0.6-0.5,0.9c0,0.3,0.2,0.6,0.5,1c7.5-7.5,15-15,22.6-22.4c0,0,0,0,0,0C37.4,55.9,36.9,56,36.9,56"/>
	<g>
		<g>
			<defs>
				<rect id="SVGID_47_" x="20.4" y="56.9" width="18.5" height="26.5"/>
			</defs>
			<clipPath id="SVGID_48_">
				<use xlink:href="#SVGID_47_"  style="overflow:visible;"/>
			</clipPath>
			<g style="clip-path:url(#SVGID_48_);">
				
					<image style="overflow:visible;" width="39" height="56" xlink:href="A3AF50F.jpg"  transform="matrix(0.48 0 0 0.48 20.16 56.8)">
				</image>
			</g>
		</g>
	</g>
	<path class="st1" d="M38.2,57.2c-0.5,0.7-4.1,6-5.9,8.7c-0.4,0.7-0.8,1.3-1.8,1.5c-0.3,0.1-0.6,0.4-0.8,0.7
		c-3,4.4-5.9,8.9-8.9,13.3c-0.3,0.4-0.4,0.7-0.3,1c0.1,0.3,0.3,0.5,0.7,0.9c5.9-8.8,11.8-17.7,17.6-26.5c0,0,0,0,0,0
		C38.8,56.9,38.2,57.2,38.2,57.2"/>
	<g>
		<g>
			<defs>
				<rect id="SVGID_49_" x="27.3" y="57.6" width="13.1" height="29.5"/>
			</defs>
			<clipPath id="SVGID_50_">
				<use xlink:href="#SVGID_49_"  style="overflow:visible;"/>
			</clipPath>
			<g style="clip-path:url(#SVGID_50_);">
				
					<image style="overflow:visible;" width="29" height="62" xlink:href="A3AF50C.jpg"  transform="matrix(0.48 0 0 0.48 26.88 57.28)">
				</image>
			</g>
		</g>
	</g>
	<path class="st1" d="M39.7,58c-0.4,0.8-2.8,6.7-4.1,9.7c-0.3,0.7-0.6,1.5-1.4,1.8c-0.3,0.1-0.5,0.5-0.6,0.8
		c-2,4.9-4.1,9.9-6.1,14.8c-0.2,0.5-0.3,0.8-0.1,1.1c0.1,0.2,0.4,0.5,0.9,0.7c4-9.8,8-19.6,12-29.5c0,0,0,0,0,0
		C40.3,57.6,39.7,58,39.7,58"/>
	<g>
		<g>
			<defs>
				<rect id="SVGID_51_" x="50" y="27.5" width="26.8" height="17.8"/>
			</defs>
			<clipPath id="SVGID_52_">
				<use xlink:href="#SVGID_51_"  style="overflow:visible;"/>
			</clipPath>
			<g style="clip-path:url(#SVGID_52_);">
				
					<image style="overflow:visible;" width="56" height="38" xlink:href="A3AF534.jpg"  transform="matrix(0.48 0 0 0.48 49.92 27.52)">
				</image>
			</g>
		</g>
	</g>
	<path class="st1" d="M50,45.3c0,0,0.7,0,0.8,0c0.7-0.5,6.1-4,8.8-5.8c0.7-0.5,1.3-0.9,2.2-0.7c0.3,0.1,0.7-0.1,1-0.3
		c4.4-3,8.9-5.9,13.3-8.9c0.4-0.3,0.7-0.5,0.7-0.8c0-0.3-0.1-0.6-0.3-1.1C67.6,33.5,58.8,39.4,50,45.3"/>
	<g>
		<g>
			<defs>
				<rect id="SVGID_53_" x="49" y="21.7" width="23.2" height="22.4"/>
			</defs>
			<clipPath id="SVGID_54_">
				<use xlink:href="#SVGID_53_"  style="overflow:visible;"/>
			</clipPath>
			<g style="clip-path:url(#SVGID_54_);">
				
					<image style="overflow:visible;" width="49" height="48" xlink:href="A3AF535.jpg"  transform="matrix(0.48 0 0 0.48 48.96 21.28)">
				</image>
			</g>
		</g>
	</g>
	<path class="st1" d="M49,44.1c0,0,0.7-0.1,0.7-0.2c0.6-0.6,5.2-5,7.6-7.4c0.6-0.6,1.1-1.1,2-1.1c0.3,0,0.7-0.3,0.9-0.5
		c3.8-3.7,7.6-7.5,11.4-11.3c0.4-0.4,0.5-0.6,0.5-0.9c0-0.3-0.2-0.6-0.5-1C64.1,29.2,56.5,36.7,49,44.1"/>
	<g>
		<g>
			<defs>
				<rect id="SVGID_55_" x="47.7" y="16.7" width="18.6" height="26.4"/>
			</defs>
			<clipPath id="SVGID_56_">
				<use xlink:href="#SVGID_55_"  style="overflow:visible;"/>
			</clipPath>
			<g style="clip-path:url(#SVGID_56_);">
				
					<image style="overflow:visible;" width="40" height="56" xlink:href="A3AF532.jpg"  transform="matrix(0.48 0 0 0.48 47.52 16.48)">
				</image>
			</g>
		</g>
	</g>
	<path class="st1" d="M47.7,43.1c0,0,0.7-0.3,0.7-0.3c0.5-0.7,4.1-6,6-8.7c0.4-0.7,0.9-1.3,1.8-1.5c0.3,0,0.6-0.4,0.8-0.7
		c3-4.4,6-8.8,8.9-13.3c0.3-0.4,0.4-0.7,0.3-1c-0.1-0.3-0.3-0.5-0.7-0.9C59.6,25.5,53.7,34.3,47.7,43.1"/>
	<g>
		<g>
			<defs>
				<rect id="SVGID_57_" x="46.3" y="13" width="13.3" height="29.4"/>
			</defs>
			<clipPath id="SVGID_58_">
				<use xlink:href="#SVGID_57_"  style="overflow:visible;"/>
			</clipPath>
			<g style="clip-path:url(#SVGID_58_);">
				
					<image style="overflow:visible;" width="29" height="62" xlink:href="A3AF533.jpg"  transform="matrix(0.48 0 0 0.48 46.08 12.64)">
				</image>
			</g>
		</g>
	</g>
	<path class="st1" d="M46.3,42.3c0,0,0.6-0.4,0.6-0.4c0.4-0.8,2.9-6.7,4.1-9.7c0.3-0.7,0.6-1.5,1.4-1.8c0.3-0.1,0.5-0.5,0.6-0.8
		c2.1-4.9,4.1-9.8,6.2-14.8c0.2-0.5,0.3-0.8,0.1-1.1c-0.1-0.3-0.4-0.5-0.9-0.8C54.5,22.8,50.4,32.6,46.3,42.3"/>
	<g>
		<g>
			<defs>
				<rect id="SVGID_59_" x="27.5" y="13" width="12.6" height="29.4"/>
			</defs>
			<clipPath id="SVGID_60_">
				<use xlink:href="#SVGID_59_"  style="overflow:visible;"/>
			</clipPath>
			<g style="clip-path:url(#SVGID_60_);">
				
					<image style="overflow:visible;" width="27" height="63" xlink:href="A3AF52C.jpg"  transform="matrix(0.48 0 0 0.48 27.36 12.64)">
				</image>
			</g>
		</g>
	</g>
	<path class="st1" d="M27.5,13.2c4.2,9.8,8.3,19.5,12.4,29.3c0,0,0.1-0.7,0.1-0.8c-0.3-0.8-2.8-6.7-4.1-9.7
		c-0.3-0.7-0.7-1.4-0.3-2.3c0.1-0.3,0-0.7-0.1-1c-2.1-4.9-4.2-9.8-6.3-14.7c-0.2-0.5-0.4-0.7-0.7-0.8c-0.1,0-0.2,0-0.3,0
		C28.2,13,27.9,13.1,27.5,13.2"/>
	<g>
		<g>
			<defs>
				<rect id="SVGID_61_" x="20.7" y="16.8" width="18" height="26.6"/>
			</defs>
			<clipPath id="SVGID_62_">
				<use xlink:href="#SVGID_61_"  style="overflow:visible;"/>
			</clipPath>
			<g style="clip-path:url(#SVGID_62_);">
				
					<image style="overflow:visible;" width="38" height="56" xlink:href="A3AF514.jpg"  transform="matrix(0.48 0 0 0.48 20.64 16.48)">
				</image>
			</g>
		</g>
	</g>
	<path class="st1" d="M20.7,17.1c6,8.7,12,17.5,18,26.2c0,0,0-0.7,0-0.8c-0.5-0.7-4-6-5.9-8.7c-0.5-0.7-0.9-1.3-0.7-2.2
		c0.1-0.3-0.2-0.7-0.3-1c-3-4.4-6-8.8-9-13.2c-0.3-0.4-0.5-0.6-0.8-0.7c0,0-0.1,0-0.1,0C21.4,16.8,21.1,16.9,20.7,17.1"/>
	<g>
		<g>
			<defs>
				<rect id="SVGID_63_" x="15" y="21.3" width="22.5" height="23"/>
			</defs>
			<clipPath id="SVGID_64_">
				<use xlink:href="#SVGID_63_"  style="overflow:visible;"/>
			</clipPath>
			<g style="clip-path:url(#SVGID_64_);">
				
					<image style="overflow:visible;" width="48" height="49" xlink:href="A3AF517.jpg"  transform="matrix(0.48 0 0 0.48 14.88 21.28)">
				</image>
			</g>
		</g>
	</g>
	<path class="st1" d="M16,21.3c-0.3,0-0.6,0.2-1,0.5c7.5,7.5,15,15,22.5,22.5c0,0-0.1-0.7-0.2-0.7c-0.6-0.6-5.1-5.2-7.4-7.5
		c-0.6-0.6-1.1-1.1-1.1-2c0-0.3-0.3-0.7-0.5-0.9c-3.8-3.8-7.5-7.6-11.3-11.3C16.6,21.5,16.3,21.3,16,21.3C16,21.3,16,21.3,16,21.3"
		/>
</g>
</svg>
