<?xml version="1.0" encoding="utf-8"?>
<!-- Generator: Adobe Illustrator 24.1.2, SVG Export Plug-In . SVG Version: 6.00 Build 0)  -->
<svg version="1.1" id="Layer_1" xmlns="http://www.w3.org/2000/svg" xmlns:xlink="http://www.w3.org/1999/xlink" x="0px" y="0px"
	 viewBox="0 0 200 100" style="enable-background:new 0 0 200 100;" xml:space="preserve">
<style type="text/css">
	.st0{fill:#FFFFFF;}
</style>
<g>
	<g>
		<path class="st0" d="M98.4,64.8c-0.6-0.4-0.8-1-0.8-1.7v-0.4c0-0.1,0-0.1,0.1-0.1h0.6c0.1,0,0.1,0,0.1,0.1V63
			c0,0.5,0.2,0.9,0.6,1.2c0.4,0.3,1,0.5,1.7,0.5c0.7,0,1.2-0.1,1.5-0.4c0.3-0.3,0.5-0.6,0.5-1.1c0-0.3-0.1-0.6-0.2-0.8
			c-0.2-0.2-0.4-0.4-0.7-0.6c-0.3-0.2-0.8-0.4-1.4-0.7c-0.6-0.3-1.1-0.5-1.5-0.7c-0.4-0.2-0.6-0.4-0.9-0.7c-0.2-0.3-0.3-0.7-0.3-1.1
			c0-0.7,0.2-1.3,0.8-1.7c0.5-0.4,1.2-0.6,2.1-0.6c0.9,0,1.7,0.2,2.2,0.7c0.5,0.4,0.8,1,0.8,1.8V59c0,0.1,0,0.1-0.1,0.1h-0.6
			c-0.1,0-0.1,0-0.1-0.1v-0.2c0-0.5-0.2-0.9-0.6-1.2c-0.4-0.3-0.9-0.5-1.6-0.5c-0.6,0-1.1,0.1-1.4,0.4c-0.3,0.2-0.5,0.6-0.5,1.1
			c0,0.3,0.1,0.6,0.2,0.8c0.2,0.2,0.4,0.4,0.7,0.5c0.3,0.1,0.8,0.3,1.4,0.6c0.6,0.3,1.1,0.5,1.5,0.7c0.4,0.2,0.7,0.5,0.9,0.8
			c0.2,0.3,0.4,0.7,0.4,1.2c0,0.7-0.3,1.3-0.8,1.7c-0.5,0.4-1.3,0.6-2.2,0.6C99.8,65.5,99,65.3,98.4,64.8z"/>
		<path class="st0" d="M117.7,57.2H113c0,0-0.1,0-0.1,0.1v3.2c0,0,0,0.1,0.1,0.1h3.3c0.1,0,0.1,0,0.1,0.1v0.5c0,0.1,0,0.1-0.1,0.1
			H113c0,0-0.1,0-0.1,0.1v3.2c0,0,0,0.1,0.1,0.1h4.7c0.1,0,0.1,0,0.1,0.1v0.5c0,0.1,0,0.1-0.1,0.1h-5.6c-0.1,0-0.1,0-0.1-0.1v-8.7
			c0-0.1,0-0.1,0.1-0.1h5.6c0.1,0,0.1,0,0.1,0.1v0.5C117.8,57.1,117.8,57.2,117.7,57.2z"/>
		<path class="st0" d="M131.3,65.3l-1.9-4c0,0,0,0-0.1,0h-2.2c0,0-0.1,0-0.1,0.1v3.9c0,0.1,0,0.1-0.1,0.1h-0.7c-0.1,0-0.1,0-0.1-0.1
			v-8.7c0-0.1,0-0.1,0.1-0.1h3.3c0.7,0,1.3,0.2,1.8,0.7c0.5,0.5,0.7,1.1,0.7,1.8c0,0.6-0.2,1.1-0.5,1.5c-0.3,0.4-0.8,0.7-1.3,0.8
			c0,0,0,0,0,0.1l1.9,4c0,0,0,0,0,0.1c0,0.1,0,0.1-0.1,0.1h-0.7C131.4,65.4,131.3,65.3,131.3,65.3z M127.1,57.2v3.2
			c0,0,0,0.1,0.1,0.1h2.4c0.5,0,0.9-0.2,1.2-0.5c0.3-0.3,0.5-0.7,0.5-1.2c0-0.5-0.2-0.9-0.5-1.2c-0.3-0.3-0.7-0.5-1.2-0.5
			L127.1,57.2C127.1,57.2,127.1,57.2,127.1,57.2z"/>
		<path class="st0" d="M142.4,65.3l-2.8-8.7l0-0.1c0-0.1,0-0.1,0.1-0.1h0.7c0.1,0,0.1,0,0.2,0.1l2.3,7.5c0,0,0,0,0,0c0,0,0,0,0,0
			l2.3-7.5c0-0.1,0.1-0.1,0.2-0.1h0.7c0.1,0,0.1,0,0.1,0.1l-2.8,8.7c0,0.1-0.1,0.1-0.2,0.1h-0.7C142.5,65.4,142.4,65.3,142.4,65.3z"
			/>
		<path class="st0" d="M154.3,65.2v-8.7c0-0.1,0-0.1,0.1-0.1h0.7c0.1,0,0.1,0,0.1,0.1v8.7c0,0.1,0,0.1-0.1,0.1h-0.7
			C154.4,65.4,154.3,65.3,154.3,65.2z"/>
		<path class="st0" d="M165.2,65.1c-0.5-0.2-0.8-0.6-1.1-1c-0.3-0.4-0.4-0.9-0.4-1.5v-3.5c0-0.6,0.1-1,0.4-1.5
			c0.3-0.4,0.6-0.8,1.1-1c0.5-0.2,1-0.4,1.6-0.4c0.6,0,1.1,0.1,1.6,0.3c0.5,0.2,0.8,0.6,1.1,1c0.3,0.4,0.4,0.9,0.4,1.4
			c0,0,0,0.1,0,0.1c0,0-0.1,0-0.1,0l-0.7,0c-0.1,0-0.1,0-0.1-0.1v0c0-0.6-0.2-1.1-0.6-1.5c-0.4-0.4-0.9-0.5-1.5-0.5
			c-0.6,0-1.1,0.2-1.5,0.6c-0.4,0.4-0.6,0.9-0.6,1.4v3.6c0,0.6,0.2,1.1,0.6,1.4c0.4,0.4,0.9,0.6,1.5,0.6c0.6,0,1.1-0.2,1.5-0.5
			c0.4-0.4,0.6-0.8,0.6-1.5v0c0-0.1,0-0.1,0.1-0.1l0.7,0c0.1,0,0.1,0,0.1,0.1c0,0.6-0.1,1-0.4,1.5c-0.3,0.4-0.6,0.7-1.1,1
			c-0.5,0.2-1,0.3-1.6,0.3C166.2,65.5,165.7,65.4,165.2,65.1z"/>
		<path class="st0" d="M183.9,57.2h-4.7c0,0-0.1,0-0.1,0.1v3.2c0,0,0,0.1,0.1,0.1h3.3c0.1,0,0.1,0,0.1,0.1v0.5c0,0.1,0,0.1-0.1,0.1
			h-3.3c0,0-0.1,0-0.1,0.1v3.2c0,0,0,0.1,0.1,0.1h4.7c0.1,0,0.1,0,0.1,0.1v0.5c0,0.1,0,0.1-0.1,0.1h-5.6c-0.1,0-0.1,0-0.1-0.1v-8.7
			c0-0.1,0-0.1,0.1-0.1h5.6c0.1,0,0.1,0,0.1,0.1v0.5C184.1,57.1,184,57.2,183.9,57.2z"/>
		<path class="st0" d="M192.7,64.8c-0.6-0.4-0.8-1-0.8-1.7v-0.4c0-0.1,0-0.1,0.1-0.1h0.6c0.1,0,0.1,0,0.1,0.1V63
			c0,0.5,0.2,0.9,0.6,1.2c0.4,0.3,1,0.5,1.7,0.5c0.7,0,1.2-0.1,1.5-0.4c0.3-0.3,0.5-0.6,0.5-1.1c0-0.3-0.1-0.6-0.2-0.8
			c-0.2-0.2-0.4-0.4-0.7-0.6c-0.3-0.2-0.8-0.4-1.4-0.7c-0.6-0.3-1.1-0.5-1.5-0.7s-0.6-0.4-0.9-0.7c-0.2-0.3-0.3-0.7-0.3-1.1
			c0-0.7,0.3-1.3,0.8-1.7c0.5-0.4,1.2-0.6,2.1-0.6c0.9,0,1.7,0.2,2.2,0.7c0.5,0.4,0.8,1,0.8,1.8V59c0,0.1,0,0.1-0.1,0.1h-0.6
			c-0.1,0-0.1,0-0.1-0.1v-0.2c0-0.5-0.2-0.9-0.6-1.2c-0.4-0.3-0.9-0.5-1.6-0.5c-0.6,0-1.1,0.1-1.4,0.4c-0.3,0.2-0.5,0.6-0.5,1.1
			c0,0.3,0.1,0.6,0.2,0.8c0.2,0.2,0.4,0.4,0.7,0.5c0.3,0.1,0.8,0.3,1.4,0.6c0.6,0.3,1.1,0.5,1.5,0.7c0.4,0.2,0.7,0.5,0.9,0.8
			c0.2,0.3,0.4,0.7,0.4,1.2c0,0.7-0.3,1.3-0.8,1.7c-0.5,0.4-1.3,0.6-2.2,0.6C194.1,65.5,193.3,65.3,192.7,64.8z"/>
	</g>
	<path class="st0" d="M104.4,34.7c1.1,0,2,0.2,2.8,0.6c0.8,0.4,1.5,1,2.1,1.7c0.6,0.7,1,1.5,1.3,2.5c0.3,0.9,0.4,1.9,0.4,3
		c0,1.4-0.3,2.7-0.8,3.9c-0.5,1.2-1.3,2.1-2.2,2.8c-1,0.7-2.2,1-3.6,1h-5.3c-0.4,0-0.7-0.1-1-0.4c-0.3-0.3-0.4-0.6-0.4-1V36
		c0-0.4,0.1-0.7,0.4-1c0.3-0.3,0.6-0.4,1-0.4H104.4z M104.2,47.6c0.9,0,1.7-0.2,2.3-0.7c0.6-0.5,1-1.1,1.3-1.9
		c0.3-0.8,0.4-1.6,0.4-2.6c0-0.7-0.1-1.4-0.2-2c-0.2-0.6-0.4-1.2-0.7-1.7c-0.3-0.5-0.7-0.9-1.2-1.1c-0.5-0.3-1.1-0.4-1.8-0.4h-3.9
		l0.2-0.2v10.8l-0.1-0.2H104.2z"/>
	<path class="st0" d="M126.3,48.8c-0.1-0.4-0.3-0.6-0.6-0.8c-0.2-0.1-0.3-0.3-0.4-0.4c-0.1-0.2-0.1-0.4-0.1-0.7c0-0.3-0.1-0.6-0.1-1
		c0-0.4-0.1-0.8-0.3-1.1c-0.2-0.3-0.4-0.7-0.6-1c-0.2-0.2-0.4-0.4-0.6-0.5c0.3-0.2,0.6-0.4,0.9-0.7c0.4-0.4,0.7-0.9,0.9-1.4
		c0.2-0.5,0.3-1.1,0.3-1.6c0-0.9-0.2-1.7-0.6-2.5c-0.4-0.7-1-1.3-1.6-1.7c-0.7-0.4-1.4-0.6-2.2-0.6h-6.4c-0.4,0-0.7,0.1-1,0.4
		c-0.3,0.3-0.4,0.6-0.4,1v12.8c0,0.4,0.2,0.7,0.5,1c0.3,0.3,0.7,0.4,1.1,0.4c0.4,0,0.7-0.1,0.9-0.4c0.2-0.3,0.3-0.6,0.3-1v-4.3h4.1
		c0.3,0,0.6,0,0.9,0.1c0.3,0.1,0.5,0.2,0.6,0.4c0.2,0.2,0.3,0.3,0.4,0.6c0.1,0.2,0.1,0.4,0.1,0.7c0,0.8,0.1,1.4,0.2,1.9
		c0.2,0.5,0.4,0.9,0.6,1.2c0.3,0.3,0.5,0.5,0.8,0.7c0.2,0.1,0.4,0.2,0.6,0.2c0.3,0.1,0.5,0.1,0.8,0c0.3-0.1,0.5-0.2,0.6-0.4
		C126.3,49.5,126.4,49.2,126.3,48.8z M122.6,40.9c-0.2,0.4-0.4,0.8-0.6,1c-0.3,0.2-0.5,0.4-0.8,0.4h-4.8v-5h4.8
		c0.4,0,0.8,0.2,1.1,0.7c0.3,0.4,0.5,1,0.5,1.6C122.8,40,122.7,40.5,122.6,40.9z"/>
	<path class="st0" d="M142.8,42.4c0,1.1-0.2,2.1-0.6,3.1s-0.9,1.8-1.6,2.5c-0.7,0.7-1.5,1.3-2.4,1.7c-0.9,0.4-1.9,0.6-3,0.6
		c-1.1,0-2.1-0.2-3-0.6c-0.9-0.4-1.7-1-2.4-1.7c-0.7-0.7-1.2-1.6-1.6-2.5c-0.4-1-0.6-2-0.6-3.1c0-1.1,0.2-2.1,0.6-3.1
		c0.4-1,0.9-1.8,1.6-2.5c0.7-0.7,1.5-1.3,2.4-1.7c0.9-0.4,1.9-0.6,3-0.6c1.1,0,2.1,0.2,3,0.6c0.9,0.4,1.7,1,2.4,1.7
		c0.7,0.7,1.2,1.6,1.6,2.5C142.6,40.3,142.8,41.3,142.8,42.4z M139.9,42.4c0-1-0.2-1.9-0.6-2.7c-0.4-0.8-0.9-1.4-1.6-1.9
		c-0.7-0.5-1.5-0.7-2.4-0.7s-1.7,0.2-2.4,0.7c-0.7,0.5-1.2,1.1-1.6,1.9c-0.4,0.8-0.6,1.7-0.6,2.7c0,1,0.2,1.9,0.6,2.7
		c0.4,0.8,0.9,1.4,1.6,1.9c0.7,0.5,1.5,0.7,2.4,0.7s1.7-0.2,2.4-0.7c0.7-0.5,1.2-1.1,1.6-1.9C139.7,44.3,139.9,43.4,139.9,42.4z"/>
	<path class="st0" d="M157.9,35c-0.2-0.2-0.5-0.4-0.9-0.4c-0.4,0-0.7,0.1-0.9,0.4c-0.2,0.2-0.3,0.5-0.3,0.9v9.5l-8-10.3
		c-0.1-0.2-0.3-0.3-0.5-0.4c-0.2-0.1-0.4-0.1-0.6-0.1c-0.4,0-0.7,0.1-1,0.4c-0.3,0.3-0.4,0.6-0.4,1v12.9c0,0.4,0.1,0.6,0.3,0.9
		c0.2,0.2,0.5,0.4,0.9,0.4c0.4,0,0.7-0.1,0.9-0.4c0.2-0.2,0.3-0.5,0.3-0.9v-9.4l8.1,10.3c0.1,0.1,0.3,0.2,0.5,0.3
		c0.2,0.1,0.4,0.1,0.6,0.1c0.4,0,0.7-0.1,1-0.4c0.3-0.3,0.4-0.6,0.4-1V35.9C158.2,35.6,158.1,35.3,157.9,35z"/>
	<path class="st0" d="M162.9,34.7h7.4c0.4,0,0.7,0.1,1,0.4c0.3,0.2,0.4,0.6,0.4,0.9c0,0.4-0.1,0.7-0.4,0.9c-0.3,0.2-0.6,0.3-1,0.3
		h-6.2l0.2-0.4v4.3l-0.2-0.2h5.2c0.4,0,0.7,0.1,1,0.4c0.3,0.2,0.4,0.6,0.4,0.9c0,0.4-0.1,0.7-0.4,0.9c-0.3,0.2-0.6,0.3-1,0.3h-5.1
		l0.1-0.2v4.5l-0.2-0.2h6.2c0.4,0,0.7,0.1,1,0.4c0.3,0.3,0.4,0.6,0.4,0.9c0,0.4-0.1,0.7-0.4,0.9c-0.3,0.2-0.6,0.4-1,0.4h-7.4
		c-0.4,0-0.7-0.1-1-0.4c-0.3-0.3-0.4-0.6-0.4-1V36c0-0.4,0.1-0.7,0.4-1C162.2,34.8,162.5,34.7,162.9,34.7z"/>
	<path class="st0" d="M192.5,48.4l-5.4-13c-0.1-0.3-0.3-0.5-0.5-0.7c-0.2-0.2-0.5-0.2-0.7-0.2c-0.3,0-0.5,0-0.8,0.2
		c-0.2,0.2-0.4,0.4-0.5,0.7L179,48.7c0,0.1-0.1,0.3-0.1,0.4c0,0.3,0.1,0.6,0.3,0.8c0.2,0.2,0.5,0.3,0.9,0.3c0.3,0,0.5-0.1,0.7-0.2
		c0.2-0.2,0.4-0.4,0.5-0.7l1.1-2.7h6.6l1.1,2.7c0.1,0.3,0.3,0.5,0.5,0.7c0.2,0.2,0.5,0.2,0.7,0.2c0.3,0,0.6-0.1,0.9-0.4
		c0.3-0.2,0.4-0.6,0.4-1C192.6,48.8,192.6,48.6,192.5,48.4z M183.5,44.1l2.2-5.2l2.2,5.2H183.5z"/>
	<path class="st0" d="M196,38.3c-0.4,0-0.7,0.1-1,0.4c-0.3,0.3-0.4,0.6-0.4,1v9.1c0,0.4,0.1,0.7,0.4,1c0.3,0.3,0.6,0.4,1,0.4
		c0.4,0,0.7-0.1,1-0.4c0.3-0.3,0.4-0.6,0.4-1v-9.1c0-0.4-0.1-0.7-0.4-1C196.7,38.5,196.4,38.3,196,38.3z"/>
	<circle class="st0" cx="196" cy="35.8" r="1.4"/>
</g>
<g>
	
		<image style="overflow:visible;" width="28" height="132" xlink:href="9192E408.png"  transform="matrix(0.24 0 0 0.24 45.16 57.98)">
	</image>
	
		<image style="overflow:visible;" width="29" height="132" xlink:href="9192E416.png"  transform="matrix(0.24 0 0 0.24 35.56 10.22)">
	</image>
	
		<image style="overflow:visible;" width="8" height="135" xlink:href="9192E417.png"  transform="matrix(0.24 0 0 0.24 42.28 57.98)">
	</image>
	<image style="overflow:visible;" width="8" height="135" xlink:href="9192E410.png"  transform="matrix(0.24 0 0 0.24 43.48 9.5)">
	</image>
	
		<image style="overflow:visible;" width="32" height="132" xlink:href="9192E411.png"  transform="matrix(0.24 0 0 0.24 34.84 57.98)">
	</image>
	
		<image style="overflow:visible;" width="32" height="132" xlink:href="9192E42A.png"  transform="matrix(0.24 0 0 0.24 45.16 10.22)">
	</image>
	
		<image style="overflow:visible;" width="54" height="125" xlink:href="9192E42B.png"  transform="matrix(0.24 0 0 0.24 46.84 57.26)">
	</image>
	
		<image style="overflow:visible;" width="76" height="113" xlink:href="9192E42C.png"  transform="matrix(0.24 0 0 0.24 48.52 56.54)">
	</image>
	
		<image style="overflow:visible;" width="95" height="98" xlink:href="9192E42D.png"  transform="matrix(0.24 0 0 0.24 49.72 55.58)">
	</image>
	
		<image style="overflow:visible;" width="113" height="78" xlink:href="A3AF4C9.png"  transform="matrix(0.24 0 0 0.24 50.68 54.14)">
	</image>
	<image style="overflow:visible;" width="125" height="56" xlink:href="A3AF4CA.png"  transform="matrix(0.24 0 0 0.24 51.4 52.7)">
	</image>
	
		<image style="overflow:visible;" width="132" height="31" xlink:href="A3AF4CB.png"  transform="matrix(0.24 0 0 0.24 51.88 51.26)">
	</image>
	
		<image style="overflow:visible;" width="135" height="7" xlink:href="A3AF4CC.png"  transform="matrix(0.24 0 0 0.24 51.88 49.58)">
	</image>
	
		<image style="overflow:visible;" width="132" height="29" xlink:href="A3AF4CD.png"  transform="matrix(0.24 0 0 0.24 51.88 41.66)">
	</image>
	
		<image style="overflow:visible;" width="126" height="53" xlink:href="A3AF4CE.png"  transform="matrix(0.24 0 0 0.24 51.16 34.22)">
	</image>
	
		<image style="overflow:visible;" width="113" height="78" xlink:href="A3AF4C8.png"  transform="matrix(0.24 0 0 0.24 9.88 27.02)">
	</image>
	
		<image style="overflow:visible;" width="125" height="56" xlink:href="A3AF4EC.png"  transform="matrix(0.24 0 0 0.24 6.28 33.74)">
	</image>
	
		<image style="overflow:visible;" width="132" height="30" xlink:href="A3AF4EF.png"  transform="matrix(0.24 0 0 0.24 4.12 41.42)">
	</image>
	<image style="overflow:visible;" width="135" height="7" xlink:href="A3AF4D2.png"  transform="matrix(0.24 0 0 0.24 3.4 48.62)">
	</image>
	<image style="overflow:visible;" width="133" height="28" xlink:href="A3AF52E.png"  transform="matrix(0.24 0 0 0.24 4.12 51.5)">
	</image>
	
		<image style="overflow:visible;" width="126" height="53" xlink:href="A3AF52F.png"  transform="matrix(0.24 0 0 0.24 6.28 52.94)">
	</image>
	
		<image style="overflow:visible;" width="113" height="76" xlink:href="A3AF538.png"  transform="matrix(0.24 0 0 0.24 10.12 54.62)">
	</image>
	
		<image style="overflow:visible;" width="98" height="95" xlink:href="A3AF539.png"  transform="matrix(0.24 0 0 0.24 14.68 55.82)">
	</image>
	
		<image style="overflow:visible;" width="78" height="112" xlink:href="A3AF522.png"  transform="matrix(0.24 0 0 0.24 20.68 56.78)">
	</image>
	
		<image style="overflow:visible;" width="55" height="125" xlink:href="A3AF523.png"  transform="matrix(0.24 0 0 0.24 27.64 57.5)">
	</image>
	
		<image style="overflow:visible;" width="113" height="75" xlink:href="A3AF524.png"  transform="matrix(0.24 0 0 0.24 50.44 27.26)">
	</image>
	
		<image style="overflow:visible;" width="98" height="95" xlink:href="A3AF525.png"  transform="matrix(0.24 0 0 0.24 49.48 21.26)">
	</image>
	
		<image style="overflow:visible;" width="78" height="112" xlink:href="A3AF526.png"  transform="matrix(0.24 0 0 0.24 48.28 16.22)">
	</image>
	
		<image style="overflow:visible;" width="56" height="124" xlink:href="A3AF527.png"  transform="matrix(0.24 0 0 0.24 46.84 12.62)">
	</image>
	
		<image style="overflow:visible;" width="54" height="124" xlink:href="A3AF51F.png"  transform="matrix(0.24 0 0 0.24 27.88 12.62)">
	</image>
	
		<image style="overflow:visible;" width="76" height="113" xlink:href="A3AF51C.png"  transform="matrix(0.24 0 0 0.24 20.92 16.22)">
	</image>
	
		<image style="overflow:visible;" width="95" height="97" xlink:href="A3AF51D.png"  transform="matrix(0.24 0 0 0.24 15.16 21.02)">
	</image>
</g>
</svg>
