<?xml version="1.0" encoding="utf-8"?>
<!-- Generator: Adobe Illustrator 24.3.0, SVG Export Plug-In . SVG Version: 6.00 Build 0)  -->
<svg version="1.1" id="PRINT" xmlns="http://www.w3.org/2000/svg" xmlns:xlink="http://www.w3.org/1999/xlink" x="0px" y="0px"
	 viewBox="0 0 201 101" style="enable-background:new 0 0 201 101;" xml:space="preserve">
<style type="text/css">
	.st0{fill:#FFFFFF;}
	.st1{fill:#78FFA1;}
</style>
<path class="st0" d="M97.9,66.2c-0.6-0.4-0.9-1-0.9-1.8v-0.4c0-0.1,0-0.1,0.1-0.1h0.6c0.1,0,0.1,0,0.1,0.1v0.4
	c0,0.5,0.2,0.9,0.6,1.2c0.4,0.3,1,0.5,1.7,0.5c0.7,0,1.2-0.1,1.5-0.4c0.3-0.3,0.5-0.7,0.5-1.1c0-0.3-0.1-0.6-0.2-0.8
	c-0.2-0.2-0.4-0.4-0.7-0.6c-0.3-0.2-0.8-0.4-1.4-0.7c-0.7-0.3-1.2-0.5-1.5-0.7c-0.4-0.2-0.7-0.4-0.9-0.8c-0.2-0.3-0.3-0.7-0.3-1.2
	c0-0.7,0.3-1.3,0.8-1.7c0.5-0.4,1.2-0.6,2.1-0.6c1,0,1.7,0.2,2.3,0.7c0.6,0.5,0.8,1,0.8,1.8v0.3c0,0.1,0,0.1-0.1,0.1h-0.7
	c-0.1,0-0.1,0-0.1-0.1v-0.2c0-0.5-0.2-0.9-0.6-1.2c-0.4-0.3-0.9-0.5-1.6-0.5c-0.6,0-1.1,0.1-1.4,0.4c-0.3,0.3-0.5,0.6-0.5,1.1
	c0,0.3,0.1,0.6,0.2,0.8c0.2,0.2,0.4,0.4,0.7,0.5s0.8,0.3,1.4,0.6c0.6,0.3,1.1,0.5,1.5,0.7c0.4,0.2,0.7,0.5,0.9,0.8
	c0.2,0.3,0.4,0.7,0.4,1.2c0,0.7-0.3,1.3-0.8,1.7c-0.5,0.4-1.3,0.7-2.2,0.7C99.3,66.9,98.5,66.7,97.9,66.2"/>
<path class="st0" d="M117.5,58.5h-4.8c0,0-0.1,0-0.1,0.1v3.2c0,0,0,0.1,0.1,0.1h3.4c0.1,0,0.1,0,0.1,0.1v0.5c0,0.1,0,0.1-0.1,0.1
	h-3.4c0,0-0.1,0-0.1,0.1v3.3c0,0,0,0.1,0.1,0.1h4.8c0.1,0,0.1,0,0.1,0.1v0.5c0,0.1,0,0.1-0.1,0.1h-5.6c-0.1,0-0.1,0-0.1-0.1v-8.8
	c0-0.1,0-0.1,0.1-0.1h5.6c0.1,0,0.1,0,0.1,0.1v0.5C117.6,58.4,117.6,58.5,117.5,58.5"/>
<path class="st0" d="M131.2,66.7l-1.9-4c0,0,0,0-0.1,0h-2.2c0,0-0.1,0-0.1,0.1v4c0,0.1,0,0.1-0.1,0.1h-0.7c-0.1,0-0.1,0-0.1-0.1
	v-8.8c0-0.1,0-0.1,0.1-0.1h3.4c0.7,0,1.3,0.2,1.8,0.7c0.5,0.5,0.7,1.1,0.7,1.8c0,0.6-0.2,1.1-0.5,1.5c-0.3,0.4-0.8,0.7-1.3,0.8
	c0,0,0,0,0,0.1l2,4c0,0,0,0,0,0.1c0,0.1,0,0.1-0.1,0.1h-0.7C131.3,66.8,131.3,66.8,131.2,66.7 M127,58.5v3.3c0,0,0,0.1,0.1,0.1h2.4
	c0.5,0,0.9-0.2,1.2-0.5c0.3-0.3,0.5-0.7,0.5-1.2c0-0.5-0.2-0.9-0.5-1.2c-0.3-0.3-0.7-0.5-1.2-0.5L127,58.5
	C127,58.5,127,58.5,127,58.5"/>
<path class="st0" d="M142.5,66.7l-2.8-8.9l0-0.1c0-0.1,0-0.1,0.1-0.1h0.7c0.1,0,0.1,0,0.2,0.1l2.4,7.6c0,0,0,0,0,0c0,0,0,0,0,0
	l2.4-7.6c0-0.1,0.1-0.1,0.2-0.1h0.7c0.1,0,0.1,0,0.1,0.1l-2.9,8.9c0,0.1-0.1,0.1-0.2,0.1h-0.7C142.6,66.8,142.5,66.8,142.5,66.7"/>
<path class="st0" d="M154.6,66.7v-8.8c0-0.1,0-0.1,0.1-0.1h0.7c0.1,0,0.1,0,0.1,0.1v8.8c0,0.1,0,0.1-0.1,0.1h-0.7
	C154.6,66.8,154.6,66.7,154.6,66.7"/>
<path class="st0" d="M165.6,66.5c-0.5-0.2-0.8-0.6-1.1-1c-0.3-0.4-0.4-0.9-0.4-1.5v-3.6c0-0.6,0.1-1.1,0.4-1.5
	c0.3-0.4,0.6-0.8,1.1-1c0.5-0.2,1-0.4,1.6-0.4c0.6,0,1.1,0.1,1.6,0.4c0.5,0.2,0.8,0.6,1.1,1c0.3,0.4,0.4,0.9,0.4,1.5
	c0,0,0,0.1,0,0.1c0,0-0.1,0-0.1,0l-0.7,0c-0.1,0-0.1,0-0.1-0.1v0c0-0.6-0.2-1.1-0.6-1.5c-0.4-0.4-0.9-0.6-1.5-0.6
	c-0.6,0-1.2,0.2-1.5,0.6c-0.4,0.4-0.6,0.9-0.6,1.5v3.6c0,0.6,0.2,1.1,0.6,1.5c0.4,0.4,0.9,0.6,1.5,0.6c0.6,0,1.2-0.2,1.5-0.6
	c0.4-0.4,0.6-0.9,0.6-1.5v0c0-0.1,0-0.1,0.1-0.1l0.7,0c0.1,0,0.1,0,0.1,0.1c0,0.6-0.1,1.1-0.4,1.5c-0.3,0.4-0.6,0.8-1.1,1
	c-0.5,0.2-1,0.4-1.6,0.4C166.6,66.9,166.1,66.8,165.6,66.5"/>
<path class="st0" d="M184.6,58.5h-4.8c0,0-0.1,0-0.1,0.1v3.2c0,0,0,0.1,0.1,0.1h3.4c0.1,0,0.1,0,0.1,0.1v0.5c0,0.1,0,0.1-0.1,0.1
	h-3.4c0,0-0.1,0-0.1,0.1v3.3c0,0,0,0.1,0.1,0.1h4.8c0.1,0,0.1,0,0.1,0.1v0.5c0,0.1,0,0.1-0.1,0.1H179c-0.1,0-0.1,0-0.1-0.1v-8.8
	c0-0.1,0-0.1,0.1-0.1h5.6c0.1,0,0.1,0,0.1,0.1v0.5C184.8,58.4,184.7,58.5,184.6,58.5"/>
<path class="st0" d="M193.5,66.2c-0.6-0.4-0.9-1-0.9-1.8v-0.4c0-0.1,0-0.1,0.1-0.1h0.6c0.1,0,0.1,0,0.1,0.1v0.4
	c0,0.5,0.2,0.9,0.6,1.2c0.4,0.3,1,0.5,1.7,0.5c0.7,0,1.2-0.1,1.5-0.4c0.3-0.3,0.5-0.7,0.5-1.1c0-0.3-0.1-0.6-0.2-0.8
	c-0.2-0.2-0.4-0.4-0.7-0.6c-0.3-0.2-0.8-0.4-1.4-0.7c-0.6-0.3-1.2-0.5-1.5-0.7c-0.4-0.2-0.7-0.4-0.9-0.8c-0.2-0.3-0.3-0.7-0.3-1.2
	c0-0.7,0.3-1.3,0.8-1.7c0.5-0.4,1.2-0.6,2.1-0.6c1,0,1.7,0.2,2.3,0.7c0.6,0.5,0.8,1,0.8,1.8v0.3c0,0.1,0,0.1-0.1,0.1H198
	c-0.1,0-0.1,0-0.1-0.1v-0.2c0-0.5-0.2-0.9-0.6-1.2c-0.4-0.3-0.9-0.5-1.6-0.5c-0.6,0-1.1,0.1-1.4,0.4c-0.3,0.3-0.5,0.6-0.5,1.1
	c0,0.3,0.1,0.6,0.2,0.8c0.2,0.2,0.4,0.4,0.7,0.5c0.3,0.2,0.8,0.3,1.4,0.6c0.6,0.3,1.1,0.5,1.5,0.7c0.4,0.2,0.7,0.5,0.9,0.8
	c0.2,0.3,0.4,0.7,0.4,1.2c0,0.7-0.3,1.3-0.8,1.7c-0.5,0.4-1.3,0.7-2.2,0.7C194.9,66.9,194.1,66.7,193.5,66.2"/>
<path class="st0" d="M104,35.7c1.1,0,2,0.2,2.9,0.6c0.8,0.4,1.5,1,2.1,1.7c0.6,0.7,1,1.6,1.3,2.5c0.3,0.9,0.4,2,0.4,3
	c0,1.4-0.3,2.8-0.8,4c-0.5,1.2-1.3,2.1-2.3,2.8c-1,0.7-2.2,1.1-3.7,1.1h-5.4c-0.4,0-0.7-0.1-1-0.4c-0.3-0.3-0.4-0.6-0.4-1V37
	c0-0.4,0.1-0.7,0.4-1c0.3-0.3,0.6-0.4,1-0.4H104z M103.7,48.8c0.9,0,1.7-0.2,2.3-0.7c0.6-0.5,1-1.1,1.3-1.9c0.3-0.8,0.4-1.7,0.4-2.6
	c0-0.7-0.1-1.4-0.2-2c-0.2-0.6-0.4-1.2-0.7-1.7c-0.3-0.5-0.7-0.9-1.3-1.2c-0.5-0.3-1.1-0.4-1.8-0.4h-3.9L100,38v11l-0.1-0.2H103.7z"
	/>
<path class="st0" d="M126.2,50c-0.1-0.4-0.3-0.6-0.6-0.8c-0.2-0.1-0.3-0.3-0.4-0.4c-0.1-0.2-0.1-0.4-0.1-0.7c0-0.3-0.1-0.6-0.1-1
	c0-0.4-0.1-0.8-0.3-1.1c-0.2-0.4-0.4-0.7-0.6-1c-0.2-0.2-0.4-0.4-0.6-0.5c0.3-0.2,0.6-0.5,0.9-0.8c0.4-0.4,0.7-0.9,0.9-1.5
	c0.2-0.5,0.3-1.1,0.3-1.7c0-0.9-0.2-1.8-0.6-2.5c-0.4-0.7-1-1.3-1.6-1.7c-0.7-0.4-1.4-0.6-2.2-0.6h-6.5c-0.4,0-0.7,0.1-1,0.4
	c-0.3,0.3-0.4,0.6-0.4,1v13c0,0.4,0.2,0.7,0.5,1c0.3,0.3,0.7,0.4,1.1,0.4c0.4,0,0.7-0.1,0.9-0.4c0.2-0.3,0.3-0.6,0.3-1v-4.3h4.2
	c0.3,0,0.6,0,0.9,0.1c0.3,0.1,0.5,0.2,0.6,0.4c0.2,0.2,0.3,0.3,0.4,0.6c0.1,0.2,0.1,0.5,0.1,0.7c0,0.8,0.1,1.4,0.2,1.9
	c0.2,0.5,0.4,0.9,0.6,1.2c0.3,0.3,0.5,0.5,0.8,0.7c0.2,0.1,0.4,0.2,0.6,0.2c0.3,0.1,0.5,0.1,0.8,0c0.3-0.1,0.5-0.2,0.6-0.4
	C126.2,50.7,126.3,50.4,126.2,50 M122.4,42c-0.2,0.4-0.4,0.8-0.6,1c-0.3,0.2-0.5,0.4-0.8,0.4h-4.9v-5.1h4.9c0.4,0,0.8,0.2,1.1,0.7
	c0.4,0.4,0.5,1,0.5,1.6C122.6,41.1,122.6,41.5,122.4,42"/>
<path class="st0" d="M142.9,43.5c0,1.1-0.2,2.2-0.6,3.1c-0.4,1-0.9,1.8-1.6,2.6c-0.7,0.7-1.5,1.3-2.4,1.7c-0.9,0.4-2,0.6-3.1,0.6
	c-1.1,0-2.1-0.2-3-0.6c-0.9-0.4-1.7-1-2.4-1.7c-0.7-0.7-1.2-1.6-1.6-2.6c-0.4-1-0.6-2-0.6-3.1c0-1.1,0.2-2.2,0.6-3.1
	c0.4-1,0.9-1.8,1.6-2.6c0.7-0.7,1.5-1.3,2.4-1.7c0.9-0.4,1.9-0.6,3-0.6c1.1,0,2.1,0.2,3.1,0.6c0.9,0.4,1.7,1,2.4,1.7
	c0.7,0.7,1.2,1.6,1.6,2.6C142.7,41.3,142.9,42.4,142.9,43.5 M140,43.5c0-1-0.2-1.9-0.6-2.7c-0.4-0.8-1-1.5-1.7-1.9
	c-0.7-0.5-1.5-0.7-2.4-0.7c-0.9,0-1.7,0.2-2.4,0.7c-0.7,0.5-1.3,1.1-1.6,1.9c-0.4,0.8-0.6,1.7-0.6,2.7c0,1,0.2,1.9,0.6,2.7
	c0.4,0.8,0.9,1.5,1.6,1.9c0.7,0.5,1.5,0.7,2.4,0.7c0.9,0,1.7-0.2,2.4-0.7c0.7-0.5,1.3-1.1,1.7-1.9C139.8,45.4,140,44.5,140,43.5"/>
<path class="st0" d="M158.2,36c-0.2-0.2-0.5-0.4-0.9-0.4c-0.4,0-0.7,0.1-0.9,0.4c-0.2,0.2-0.3,0.5-0.3,0.9v9.6L148,36.2
	c-0.1-0.2-0.3-0.3-0.5-0.4c-0.2-0.1-0.4-0.1-0.6-0.1c-0.4,0-0.7,0.1-1,0.4c-0.3,0.3-0.4,0.6-0.4,1v13.1c0,0.4,0.1,0.7,0.3,0.9
	c0.2,0.2,0.5,0.4,0.9,0.4c0.4,0,0.7-0.1,0.9-0.4c0.2-0.2,0.3-0.5,0.3-0.9v-9.6l8.2,10.4c0.1,0.1,0.3,0.2,0.5,0.3
	c0.2,0.1,0.4,0.1,0.6,0.1c0.4,0,0.7-0.1,1-0.4c0.3-0.3,0.4-0.6,0.4-1V36.9C158.6,36.6,158.5,36.3,158.2,36"/>
<path class="st0" d="M163.3,35.7h7.5c0.4,0,0.7,0.1,1,0.4c0.3,0.2,0.4,0.6,0.4,1c0,0.4-0.1,0.7-0.4,0.9c-0.3,0.2-0.6,0.3-1,0.3h-6.3
	l0.2-0.4v4.4l-0.2-0.2h5.2c0.4,0,0.7,0.1,1,0.4c0.3,0.2,0.4,0.6,0.4,1c0,0.4-0.1,0.7-0.4,0.9c-0.3,0.2-0.6,0.3-1,0.3h-5.2l0.1-0.2
	V49l-0.2-0.2h6.3c0.4,0,0.7,0.1,1,0.4c0.3,0.3,0.4,0.6,0.4,0.9c0,0.4-0.1,0.7-0.4,0.9c-0.3,0.2-0.6,0.4-1,0.4h-7.5
	c-0.4,0-0.7-0.1-1-0.4c-0.3-0.3-0.4-0.6-0.4-1V37c0-0.4,0.1-0.7,0.4-1C162.6,35.8,162.9,35.7,163.3,35.7"/>
<path class="st0" d="M193.3,49.6l-5.5-13.1c-0.1-0.3-0.3-0.5-0.5-0.7c-0.2-0.2-0.5-0.2-0.8-0.2c-0.3,0-0.5,0-0.8,0.2
	c-0.2,0.2-0.4,0.4-0.5,0.7l-5.6,13.4c0,0.1-0.1,0.3-0.1,0.4c0,0.3,0.1,0.6,0.3,0.8c0.2,0.2,0.5,0.3,0.9,0.3c0.3,0,0.5-0.1,0.7-0.2
	c0.2-0.2,0.4-0.4,0.5-0.7l1.2-2.7h6.7l1.2,2.7c0.1,0.3,0.3,0.5,0.5,0.7c0.2,0.2,0.5,0.2,0.7,0.2c0.3,0,0.6-0.1,0.9-0.4
	c0.3-0.2,0.4-0.6,0.4-1C193.4,50,193.4,49.8,193.3,49.6 M184.2,45.3l2.2-5.2l2.3,5.2H184.2z"/>
<path class="st0" d="M196.9,39.4c-0.4,0-0.7,0.1-1,0.4c-0.3,0.3-0.4,0.6-0.4,1V50c0,0.4,0.1,0.7,0.4,1c0.3,0.3,0.6,0.4,1,0.4
	c0.4,0,0.7-0.1,1-0.4c0.3-0.3,0.4-0.6,0.4-1v-9.3c0-0.4-0.1-0.7-0.4-1C197.6,39.5,197.2,39.4,196.9,39.4"/>
<path class="st0" d="M198.3,36.8c0,0.8-0.6,1.4-1.4,1.4c-0.8,0-1.4-0.6-1.4-1.4c0-0.8,0.6-1.4,1.4-1.4
	C197.6,35.4,198.3,36,198.3,36.8"/>
<path class="st1" d="M44,60c0.2,0.9,1.3,7.3,2,10.6c0.2,0.8,0.4,1.6-0.2,2.4c-0.2,0.3-0.1,0.7-0.1,1.1c1,5.4,2.1,10.7,3.2,16.1
	c0.1,0.5,0.2,0.8,0.5,1c0.2,0.1,0.6,0.2,1.2,0.1c-2.1-10.6-4.2-21.3-6.3-31.9C44.3,59.3,44,60,44,60"/>
<path class="st1" d="M34.4,11.1c2.1,10.6,4.3,21.3,6.4,31.9c0,0,0.3-0.7,0.3-0.7c-0.2-0.9-1.4-7.3-2-10.6c-0.2-0.8-0.4-1.6,0.2-2.4
	c0.2-0.3,0.1-0.7,0.1-1.1c-1.1-5.4-2.1-10.7-3.2-16c-0.1-0.5-0.2-0.8-0.5-1c-0.2-0.1-0.4-0.1-0.7-0.1C34.7,11.1,34.6,11.1,34.4,11.1
	"/>
<path class="st1" d="M42.3,60.2c0,0.9-0.1,7.4-0.1,10.8c0,0.8,0,1.6-0.7,2.3c-0.2,0.2-0.3,0.7-0.3,1c0,5.5-0.1,10.9-0.1,16.4
	c0,0.5,0.1,0.9,0.3,1.1c0.2,0.2,0.6,0.3,1.1,0.4c0.1-10.9,0.1-21.7,0.2-32.5c0,0,0,0,0,0C42.7,59.5,42.3,60.1,42.3,60.2"/>
<path class="st1" d="M42.4,42.8c0.1,0,0.4-0.6,0.4-0.7c0-0.9,0.1-7.4,0.1-10.8c0-0.8,0-1.6,0.7-2.3c0.2-0.2,0.3-0.7,0.3-1
	C44,22.6,44,17.1,44,11.7c0-0.5-0.1-0.8-0.3-1.1c-0.2-0.2-0.6-0.3-1.1-0.4C42.5,21.1,42.5,31.9,42.4,42.8"/>
<path class="st1" d="M40.5,60c-0.2,0.9-1.5,7.3-2.1,10.6c-0.2,0.8-0.3,1.6-1.1,2.1c-0.3,0.2-0.4,0.6-0.5,1
	c-1.1,5.4-2.1,10.7-3.1,16.1c-0.1,0.5-0.1,0.8,0.1,1.1c0.2,0.2,0.5,0.4,1.1,0.6c2.1-10.6,4.2-21.3,6.2-31.9c0,0,0,0,0,0
	C41,59.4,40.5,60,40.5,60"/>
<path class="st1" d="M44,42.8c0,0,0.5-0.5,0.5-0.6c0.2-0.9,1.5-7.2,2.2-10.6c0.2-0.8,0.3-1.6,1.1-2.1c0.3-0.2,0.4-0.6,0.5-1
	c1.1-5.3,2.2-10.7,3.2-16c0.1-0.5,0.1-0.8-0.1-1.1c-0.2-0.2-0.5-0.4-1-0.6C48.2,21.6,46.1,32.2,44,42.8"/>
<path class="st1" d="M45.8,59.5c0.3,0.8,2.8,6.9,4.1,10c0.3,0.8,0.7,1.5,0.3,2.4c-0.1,0.3,0,0.7,0.1,1.1c2.1,5,4.2,10.1,6.3,15.1
	c0.2,0.5,0.4,0.8,0.7,0.9c0.3,0.1,0.6,0,1.2-0.1c-4.2-10-8.4-20-12.6-30C45.9,58.8,45.8,59.5,45.8,59.5"/>
<path class="st1" d="M47.4,58.7c0.5,0.8,4.1,6.2,6,8.9c0.5,0.7,0.9,1.3,0.7,2.2c-0.1,0.3,0.2,0.7,0.4,1c3.1,4.5,6.2,9,9.3,13.5
	c0.3,0.4,0.5,0.7,0.8,0.7c0.3,0,0.6-0.1,1.1-0.4c-6.1-9-12.3-17.9-18.4-26.8C47.4,57.9,47.4,58.7,47.4,58.7"/>
<path class="st1" d="M48.8,57.7c0.6,0.7,5.2,5.3,7.6,7.7c0.6,0.6,1.2,1.1,1.1,2.1c0,0.3,0.3,0.7,0.5,0.9c3.8,3.9,7.7,7.7,11.6,11.6
	c0.4,0.4,0.7,0.6,1,0.5c0.3,0,0.6-0.2,1.1-0.6c-7.7-7.7-15.3-15.4-23-23C48.6,57,48.8,57.7,48.8,57.7"/>
<path class="st1" d="M49.9,56.3c0.7,0.5,6.1,4.2,9,6c0.7,0.5,1.4,0.9,1.5,1.8c0.1,0.3,0.4,0.6,0.7,0.8c4.5,3,9.1,6,13.7,9
	c0.4,0.3,0.7,0.4,1,0.3c0.3-0.1,0.5-0.3,0.9-0.8c-9-6-18.1-12-27.1-17.9C49.6,55.6,49.9,56.3,49.9,56.3"/>
<path class="st1" d="M50.8,54.8c0.8,0.4,6.8,2.9,10,4.2c0.8,0.3,1.5,0.6,1.9,1.5c0.1,0.3,0.5,0.5,0.8,0.6c5,2.1,10.1,4.1,15.2,6.2
	c0.5,0.2,0.8,0.3,1.1,0.1c0.3-0.1,0.5-0.4,0.8-0.9c-10-4.1-20.1-8.2-30.1-12.3C50.3,54.2,50.7,54.8,50.8,54.8"/>
<path class="st1" d="M51.4,53c0.9,0.2,7.3,1.5,10.6,2.1c0.8,0.2,1.6,0.3,2.1,1.1c0.2,0.3,0.6,0.4,1,0.5c5.4,1,10.7,2.1,16.1,3.1
	c0.5,0.1,0.8,0.1,1.1-0.1c0.2-0.2,0.4-0.5,0.6-1.1c-10.7-2-21.3-4.1-32-6.1C50.8,52.5,51.3,53,51.4,53"/>
<path class="st1" d="M51.5,51.4c0.9,0,7.4,0.1,10.8,0.1c0.8,0,1.6,0,2.3,0.7c0.2,0.2,0.7,0.3,1,0.3c5.5,0,10.9,0,16.4,0
	c0.5,0,0.9-0.1,1.1-0.3c0.2-0.2,0.3-0.6,0.4-1.1c-10.9,0-21.7,0-32.5,0C50.9,51,51.5,51.4,51.5,51.4"/>
<path class="st1" d="M50.7,49.3c0,0.1,0.7,0.3,0.7,0.3c0.9-0.2,7.3-1.4,10.6-2.1c0.8-0.2,1.6-0.4,2.4,0.2c0.3,0.2,0.7,0.1,1.1,0.1
	c5.4-1.1,10.7-2.2,16-3.3c0.5-0.1,0.8-0.2,1-0.5c0.1-0.2,0.2-0.6,0.1-1.2C72,45,61.3,47.2,50.7,49.3"/>
<path class="st1" d="M50.2,47.8c0,0,0.7,0.2,0.8,0.1c0.8-0.3,6.9-2.7,10-4c0.8-0.3,1.5-0.7,2.4-0.3c0.3,0.1,0.7,0,1.1-0.1
	c5.1-2.1,10.1-4.1,15.1-6.2c0.5-0.2,0.8-0.4,0.9-0.7c0.1-0.3,0-0.6-0.1-1.2C70.3,39.5,60.2,43.7,50.2,47.8"/>
<path class="st1" d="M9.3,28c-0.3,0.1-0.5,0.3-0.9,0.8c9.1,6,18.1,11.9,27.2,17.9c0,0-0.3-0.7-0.3-0.7c-0.7-0.5-6.1-4.1-9-6
	c-0.7-0.5-1.4-0.9-1.5-1.8c-0.1-0.3-0.4-0.6-0.7-0.8c-4.6-3-9.1-6-13.7-9C9.9,28.1,9.7,28,9.4,28C9.4,28,9.3,28,9.3,28"/>
<path class="st1" d="M5.4,34.9c-0.3,0.1-0.5,0.4-0.8,0.9c10,4.1,20.1,8.2,30.1,12.3c0,0-0.4-0.6-0.4-0.6c-0.8-0.4-6.8-2.9-10-4.1
	c-0.8-0.3-1.5-0.6-1.9-1.5c-0.1-0.3-0.5-0.5-0.8-0.6c-5-2.1-10.1-4.1-15.2-6.2c-0.3-0.1-0.6-0.2-0.8-0.2C5.6,34.9,5.5,34.9,5.4,34.9
	"/>
<path class="st1" d="M3,42.7c-0.2,0.2-0.4,0.5-0.6,1.1c10.7,2,21.3,4,32,6c0,0-0.5-0.5-0.6-0.5c-0.9-0.2-7.3-1.5-10.6-2.1
	c-0.8-0.2-1.6-0.3-2.1-1.1c-0.2-0.3-0.6-0.4-1-0.5c-5.4-1-10.7-2-16.1-3c-0.2,0-0.4-0.1-0.5-0.1C3.3,42.5,3.1,42.6,3,42.7"/>
<path class="st1" d="M3.1,49.9C2.6,50,2.2,50,2,50.2c-0.2,0.2-0.3,0.6-0.4,1.1c10.8,0,21.7,0,32.5,0c0-0.1-0.6-0.4-0.7-0.4
	c-0.9,0-7.4-0.1-10.8-0.1c-0.8,0-1.6,0-2.3-0.7c-0.2-0.2-0.7-0.3-1-0.3c-2.4,0-4.8,0-7.1,0C9.3,49.9,6.2,49.9,3.1,49.9"/>
<path class="st1" d="M33.7,52.8c-0.9,0.2-7.3,1.4-10.6,2c-0.8,0.2-1.6,0.4-2.4-0.2c-0.3-0.2-0.7-0.1-1.1-0.1
	C14.3,55.6,9,56.7,3.6,57.8c-0.5,0.1-0.8,0.2-1,0.5c-0.1,0.2-0.2,0.6-0.1,1.2c10.6-2.1,21.3-4.3,31.9-6.4
	C34.4,53,33.7,52.8,33.7,52.8C33.7,52.8,33.7,52.8,33.7,52.8"/>
<path class="st1" d="M34.1,54.4c-0.8,0.3-6.9,2.7-10,4c-0.8,0.3-1.5,0.7-2.4,0.3c-0.3-0.1-0.7,0-1.1,0.1c-5.1,2.1-10.1,4.1-15.1,6.2
	c-0.5,0.2-0.8,0.4-0.9,0.7c-0.1,0.3,0,0.6,0.1,1.2c10-4.1,20.1-8.2,30.1-12.4C34.9,54.5,34.3,54.4,34.1,54.4
	C34.2,54.4,34.1,54.4,34.1,54.4"/>
<path class="st1" d="M34.9,56c-0.8,0.5-6.2,4.1-9,6c-0.7,0.5-1.3,0.9-2.3,0.7c-0.3-0.1-0.7,0.1-1,0.3c-4.5,3-9.1,6.1-13.6,9.1
	c-0.4,0.3-0.7,0.5-0.7,0.8c0,0.3,0.1,0.6,0.3,1.2c9-6.1,18-12.1,27-18.2c0,0-0.1,0-0.2,0C35.3,56,35,56,34.9,56"/>
<path class="st1" d="M35.9,57.3c-0.7,0.6-5.3,5.2-7.7,7.6c-0.6,0.6-1.1,1.2-2.1,1.1c-0.3,0-0.7,0.3-0.9,0.5
	c-3.9,3.8-7.8,7.7-11.6,11.5c-0.4,0.4-0.6,0.6-0.5,1c0,0.3,0.2,0.6,0.6,1.1c7.7-7.7,15.4-15.3,23.1-22.9c0,0,0,0,0,0
	C36.5,57.2,36,57.3,35.9,57.3"/>
<path class="st1" d="M37.3,58.6c-0.5,0.7-4.2,6.1-6.1,8.9c-0.5,0.7-0.9,1.4-1.8,1.5c-0.3,0.1-0.6,0.4-0.8,0.7
	c-3,4.5-6.1,9.1-9.1,13.6c-0.3,0.4-0.4,0.7-0.3,1c0.1,0.3,0.3,0.5,0.8,0.9c6-9,12-18.1,18-27.1c0,0,0,0,0,0
	C37.9,58.2,37.3,58.5,37.3,58.6"/>
<path class="st1" d="M38.9,59.3c-0.4,0.8-2.9,6.8-4.2,10c-0.3,0.8-0.6,1.5-1.5,1.9c-0.3,0.1-0.5,0.5-0.6,0.8
	c-2.1,5-4.1,10.1-6.2,15.2c-0.2,0.5-0.3,0.8-0.1,1.1c0.1,0.3,0.4,0.5,0.9,0.8c4.1-10,8.2-20.1,12.3-30.1c0,0,0,0,0,0
	C39.4,58.9,38.9,59.3,38.9,59.3"/>
<path class="st1" d="M49.3,46.3c0,0,0.7,0,0.8,0c0.8-0.5,6.2-4.1,9-6c0.7-0.5,1.3-0.9,2.3-0.7c0.3,0.1,0.7-0.1,1-0.3
	c4.5-3,9.1-6.1,13.6-9.1c0.4-0.3,0.7-0.5,0.7-0.8c0-0.3-0.1-0.6-0.3-1.2C67.3,34.2,58.3,40.3,49.3,46.3"/>
<path class="st1" d="M48.4,45.1c0,0,0.7-0.1,0.8-0.2c0.7-0.6,5.3-5.1,7.7-7.5c0.6-0.6,1.1-1.2,2.1-1.1c0.3,0,0.7-0.3,0.9-0.5
	c3.9-3.8,7.8-7.7,11.7-11.5c0.4-0.4,0.6-0.6,0.5-1c0-0.3-0.2-0.6-0.6-1.1C63.8,29.9,56.1,37.5,48.4,45.1"/>
<path class="st1" d="M47.1,44.1c0,0,0.7-0.3,0.7-0.3c0.5-0.7,4.2-6.1,6.1-8.9c0.5-0.7,0.9-1.4,1.8-1.5c0.3-0.1,0.6-0.4,0.8-0.7
	c3.1-4.5,6.1-9,9.1-13.6c0.3-0.4,0.4-0.7,0.3-1c-0.1-0.3-0.3-0.5-0.8-0.9C59.2,26.1,53.1,35.1,47.1,44.1"/>
<path class="st1" d="M45.6,43.3c0,0,0.6-0.4,0.6-0.4c0.4-0.8,2.9-6.8,4.2-9.9c0.3-0.8,0.6-1.5,1.5-1.8c0.3-0.1,0.5-0.5,0.7-0.8
	c2.1-5,4.2-10.1,6.3-15.1c0.2-0.5,0.3-0.8,0.1-1.1c-0.1-0.3-0.4-0.5-0.9-0.8C54,23.3,49.8,33.3,45.6,43.3"/>
<path class="st1" d="M26.4,13.5c4.2,10,8.5,19.9,12.7,29.9c0,0,0.1-0.7,0.1-0.8c-0.3-0.8-2.8-6.8-4.1-10c-0.3-0.8-0.7-1.5-0.3-2.4
	c0.1-0.3,0-0.7-0.1-1.1c-2.1-5-4.3-10-6.4-15.1c-0.2-0.5-0.4-0.8-0.7-0.8c-0.1,0-0.2,0-0.3,0C27.1,13.3,26.8,13.4,26.4,13.5"/>
<path class="st1" d="M19.4,17.5c6.1,8.9,12.2,17.9,18.4,26.8c0,0,0-0.7,0-0.8c-0.5-0.8-4.1-6.2-6-8.9c-0.5-0.7-0.9-1.3-0.8-2.2
	c0.1-0.3-0.2-0.7-0.4-1c-3.1-4.5-6.1-9-9.2-13.5c-0.3-0.4-0.5-0.7-0.8-0.7c0,0-0.1,0-0.1,0C20.2,17.2,19.8,17.3,19.4,17.5"/>
<path class="st1" d="M14.6,21.8c-0.3,0-0.6,0.2-1,0.6c7.7,7.7,15.3,15.3,23,23c0,0-0.1-0.7-0.2-0.8c-0.6-0.7-5.2-5.3-7.6-7.7
	c-0.6-0.6-1.2-1.1-1.2-2.1c0-0.3-0.3-0.7-0.5-0.9c-3.8-3.9-7.7-7.7-11.6-11.6C15.2,22,14.9,21.8,14.6,21.8
	C14.6,21.8,14.6,21.8,14.6,21.8"/>
</svg>
